<svg width="16" height="20" viewBox="0 0 16 20" fill="none" xmlns="http://www.w3.org/2000/svg">
<path fill-rule="evenodd" clip-rule="evenodd" d="M0 19.0006V0.999402C0.000119314 0.819937 0.048526 0.643811 0.140143 0.489498C0.23176 0.335184 0.363211 0.208368 0.520709 0.122352C0.678206 0.0363366 0.855947 -0.00570994 1.03529 0.000622981C1.21463 0.0069559 1.38896 0.0614349 1.54 0.158346L15.54 9.15895C15.6808 9.24952 15.7966 9.37398 15.8768 9.52093C15.9569 9.66787 15.999 9.8326 15.999 10C15.999 10.1674 15.9569 10.3321 15.8768 10.4791C15.7966 10.626 15.6808 10.7505 15.54 10.8411L1.54 19.8417C1.38896 19.9386 1.21463 19.993 1.03529 19.9994C0.855947 20.0057 0.678206 19.9637 0.520709 19.8776C0.363211 19.7916 0.23176 19.6648 0.140143 19.5105C0.048526 19.3562 0.000119314 19.1801 0 19.0006H0Z" fill="#FC8A15"/>
</svg>
