<svg xmlns="http://www.w3.org/2000/svg" width="302" height="249" viewBox="0 0 302 249">
    <g fill="none" fill-rule="nonzero" opacity=".312">
        <path fill="#F5A581" d="M335.493 44.988c-10.075 1.286-20.93 3.015-31.803 4.991-9.117-8.847-19.563-16.543-31.14-22.329a246.114 246.114 0 0 0 24.569-12.213c14.686 7.744 27.726 17.612 38.374 29.551z"/>
        <path fill="#F7C6AA" d="M364.607 96.155c-9.753.57-20.032 1.356-30.293 1.891-6.393-18.24-16.995-34.77-30.638-48.004 11.129-1.979 21.986-3.726 32.554-4.991 13.049 14.445 22.818 31.919 28.377 51.104z"/>
        <path fill="#F5A581" d="M348.466 202.651c-22.884 35.544-62.316 59.245-107.423 59.652.572-.978 1.127-1.702 1.932-2.409 31.426-6.452 58.405-24.918 76.052-50.397 11.345-3.786 21.564-5.87 29.44-6.846z"/>
        <path fill="#F37256" d="M334.638 99.43c-21.802 1.282-44.094 2.275-60.924 1.863-40.05-.759-130.86 33.973-165.55 47.878-.644-5.404-1.015-11.043-1.115-16.92-.095-2.302.065-4.588.207-6.619 47.683-6.107 98.294-43.14 150.748-62.692 14.17-5.388 30.286-9.364 46.075-12.343 13.602 13.71 24.194 30.27 30.559 48.833z"/>
        <path fill="#F15A39" d="M341.409 138.675c.074 2.583-.087 4.892-.266 7.457-44.85 6.144-99.17 12.656-125.971 12.586-30.883-.097-71.408 13.566-97.91 23.828a131.992 131.992 0 0 1-8.882-33.615c34.682-14.072 125.488-49.482 165.498-48.488 16.821.403 39.102-.617 60.893-1.929 4.492 12.43 6.862 26 6.638 40.161z"/>
        <path fill="#F37256" d="M340.304 144.8c-1.398 23.64-9.29 45.55-22.265 63.786-25.21 7.681-55.238 22.427-76.789 50.528-4.645.952-9.525 1.631-14.388 2.057-9.112-.637-17.883-2.527-26.111-4.889 12.518-8.058 27.297-15.703 43.11-19.957 43.808-11.74 48.866-58.607 48.866-58.607s-35.038 13.63-65.372 14.572c-23.194.675-70.435 14.218-91.217 20.422-7.714-9.728-14.091-20.384-18.878-31.949 26.4-10.15 66.77-23.663 97.54-23.553 26.72-.174 80.84-6.599 125.504-12.41z"/>
        <path fill="#F15A39" d="M295.032 178.452s-4.815 47-48.944 58.756c-15.838 4.266-30.64 11.93-43.178 20.01-25.701-7.683-48.298-23.336-64.69-43.93 20.814-6.22 68.11-19.545 91.357-20.478 30.11-.71 65.455-14.358 65.455-14.358zM320.084 210.59c-17.77 25.192-44.962 43.43-76.659 49.774 21.25-27.718 51.484-42.22 76.66-49.774z"/>
        <path fill="#F7C6AA" d="M299.58 13.765A436.995 436.995 0 0 1 274.344 26.1c-16.871-8.23-35.775-13.077-56.05-12.984-21.807-.014-42.195 5.359-60.055 14.937C180.762 10.492 209.213-.108 240.502.066c21.296-.022 41.476 4.914 59.078 13.699z"/>
        <path fill="#F37256" d="M217.575 14.253c-21.65.012-41.898 5.462-59.641 15.156-10.522 8.418-19.63 18.461-27.288 29.623l18.845.046c18.056-6.874 39.606-12.742 62.63-14.183 18.934-1.219 40.302-8.116 61.086-17.597-16.993-8.309-35.773-12.928-55.632-13.045z"/>
        <path fill="#F15A39" d="M259.49 62.201c-34.658 13.095-68.837 33.855-101.798 48.086 1.732.63 3.158 2.001 4.08 3.338.903 1.59 1.554 3.161 1.665 5.204-.102 5.081-4.207 9.373-9.545 9.509l-81.178-.08c-2.542.077-4.996-1.113-6.657-2.755a9.715 9.715 0 0 1-2.84-6.559c.102-5.08 4.208-9.373 9.545-9.508l4.31.047 1.01.07 60.37.152c2.037-.112 3.857-.748 5.226-2.179 1.368-1.43 2.25-3.15 2.139-5.193.03-4.068-3.292-7.353-7.349-7.382l-23.585-.123-69.007.008c-5.067-.1-9.346-4.215-9.479-9.567.102-5.08 4.207-9.373 9.544-9.508l24.613-.06 1.263.088 111.11.138c1.767.124 3.353-.783 4.451-1.978 1.099-1.195 1.962-2.661 1.834-4.451-.005-3.562-2.84-6.559-6.392-6.553l-42.626.072-35.775.043c-5.067-.1-9.346-4.215-9.479-9.567.102-5.08 4.207-9.373 9.545-9.508l114.662.131c17.146-2.108 36.377-8.65 54.722-17.034 11.764 5.91 22.395 13.523 31.639 22.819-15.936 2.956-31.69 6.942-46.019 12.3z"/>
        <path fill="#FFF" d="M370.25 131.125l-.071 1.014c.058 2.805-.137 5.592-.332 8.38 36.433 6.113 59.228 14.582 59.078 23.994-.01 18.335-85.686 32.97-191.185 32.978-105.498.008-191.142-14.893-191.131-33.228-.086-9.683 23.914-18.445 62.21-24.426-.076-2.552-.152-5.103-.21-7.909l.107-1.52C43.827 138.603.628 152.898.776 168.953c0 25.465 106.086 46.125 236.989 46.366 130.92-.013 237.094-20.6 237.096-46.066.34-15.765-41.38-29.887-104.612-38.128z" opacity=".56"/>
    </g>
</svg>
