<svg width="50" height="50" viewBox="0 0 50 50" fill="none" xmlns="http://www.w3.org/2000/svg">
<path fill-rule="evenodd" clip-rule="evenodd" d="M43.75 37.5V39.5833C43.75 41.875 41.875 43.75 39.5833 43.75H10.4167C8.10417 43.75 6.25 41.875 6.25 39.5833V10.4167C6.25 8.125 8.10417 6.25 10.4167 6.25H39.5833C41.875 6.25 43.75 8.125 43.75 10.4167V12.5H25C22.6875 12.5 20.8333 14.375 20.8333 16.6667V33.3333C20.8333 35.625 22.6875 37.5 25 37.5H43.75ZM25 33.3333H45.8333V16.6667H25V33.3333ZM30.2083 25C30.2083 26.7292 31.6042 28.125 33.3333 28.125C35.0625 28.125 36.4583 26.7292 36.4583 25C36.4583 23.2708 35.0625 21.875 33.3333 21.875C31.6042 21.875 30.2083 23.2708 30.2083 25Z" fill="#FC8A15"/>
</svg>