<svg xmlns="http://www.w3.org/2000/svg" width="12" height="12" viewBox="0 0 12 12">
    <g fill="none" fill-rule="evenodd">
        <path d="M-4-4h20v20H-4z"/>
        <g fill="#FFF" fill-rule="nonzero">
            <path d="M6.01 1.145c1.593 0 1.776.01 2.408.037.577.027.898.119 1.109.201.275.11.476.238.687.45.21.21.339.402.449.686.082.21.183.522.201 1.108.028.633.037.816.037 2.41 0 1.594-.01 1.777-.037 2.409-.027.577-.119.898-.201 1.108-.11.275-.239.477-.45.687-.21.21-.402.34-.686.45-.211.082-.522.182-1.109.2-.632.028-.815.037-2.409.037-1.594 0-1.777-.009-2.409-.036-.577-.028-.898-.12-1.108-.202a1.902 1.902 0 0 1-.687-.449 1.827 1.827 0 0 1-.45-.687c-.082-.21-.182-.522-.2-1.108-.028-.632-.037-.815-.037-2.41 0-1.593.009-1.776.036-2.409.028-.577.12-.897.202-1.108.11-.275.238-.476.449-.687.21-.21.403-.339.687-.449.21-.082.522-.183 1.108-.201.632-.028.815-.037 2.41-.037zm0-1.072c-1.622 0-1.824.01-2.456.037-.632.027-1.072.128-1.447.275a2.948 2.948 0 0 0-1.054.687c-.33.33-.53.66-.687 1.053C.22 2.501.12 2.94.092 3.573c-.028.632-.037.842-.037 2.454 0 1.622.01 1.823.037 2.455.027.633.128 1.072.274 1.448.156.394.358.723.687 1.053.33.33.66.532 1.054.687.375.147.815.248 1.447.275.632.028.843.037 2.455.037 1.622 0 1.823-.01 2.455-.037.632-.027 1.072-.128 1.447-.275a2.948 2.948 0 0 0 1.054-.687c.33-.33.531-.66.687-1.053.146-.376.247-.815.275-1.448.027-.632.036-.842.036-2.455 0-1.612-.009-1.822-.036-2.454-.028-.633-.129-1.072-.275-1.448a2.948 2.948 0 0 0-.687-1.053c-.33-.33-.66-.532-1.054-.687C9.536.238 9.096.137 8.464.11 7.832.082 7.631.073 6.01.073z"/>
            <path d="M6.01 2.977a3.06 3.06 0 1 0-.002 6.118 3.06 3.06 0 0 0 .001-6.118zm0 5.047c-1.1 0-1.989-.888-1.989-1.987 0-1.1.889-1.988 1.988-1.988 1.1 0 1.988.888 1.988 1.988 0 1.099-.889 1.987-1.988 1.987z"/>
            <circle cx="9.188" cy="2.849" r="1"/>
        </g>
    </g>
</svg>
