<svg xmlns="http://www.w3.org/2000/svg" width="119" height="63" viewBox="0 0 119 63">
    <defs>
        <linearGradient id="a" x1=".004%" x2="99.993%" y1="50.003%" y2="50.003%">
            <stop offset="0%" stop-color="#FF7800"/>
            <stop offset="100%" stop-color="#FF6E02"/>
        </linearGradient>
        <linearGradient id="b" x1="69.505%" x2="15.686%" y1="51.553%" y2="49.677%">
            <stop offset="0%" stop-color="#FF0"/>
            <stop offset="100%" stop-color="#FF6E02"/>
        </linearGradient>
    </defs>
    <g fill="none" fill-rule="evenodd">
        <g fill-rule="nonzero" opacity=".7">
            <path fill="url(#a)" d="M27.637.013L.052 43.827h55.184z" transform="translate(42.539 .014)"/>
            <path fill="url(#b)" d="M27.586.013L0 43.827h55.184z" transform="translate(19.851 .014)"/>
        </g>
        <g fill="#F69707" fill-rule="nonzero">
            <path d="M0 58.946l1.521-8.367H2.63l2.217 5.367 2.32-5.367h1.109l1.379 8.354H8.031l-.735-5.057-2.243 5.173h-.438l-2.153-5.173-.838 5.057H0zM11.924 51.743c.812-.802 1.869-1.203 3.145-1.203 1.289 0 2.333.4 3.145 1.203.812.801 1.225 1.836 1.225 3.09 0 1.255-.413 2.29-1.225 3.091-.812.802-1.869 1.203-3.145 1.203-1.29 0-2.333-.401-3.145-1.203-.812-.802-1.225-1.823-1.225-3.09 0-1.255.413-2.277 1.225-3.091zm1.186 5.134c.502.53 1.16.789 1.959.789.8 0 1.457-.26 1.96-.79.502-.53.76-1.202.76-2.043 0-.827-.258-1.513-.774-2.043-.515-.53-1.16-.802-1.959-.802-.8 0-1.444.272-1.96.802-.515.53-.773 1.216-.773 2.043.026.841.284 1.513.787 2.044zM25.459 50.721v1.384h-2.952v1.836h2.823v1.384h-2.823v2.237h2.952v1.384H20.92v-8.212h4.538zM30.692 51.743c.812-.802 1.87-1.203 3.145-1.203 1.29 0 2.334.4 3.146 1.203.812.801 1.224 1.836 1.224 3.09 0 1.255-.412 2.29-1.224 3.091-.812.802-1.87 1.203-3.146 1.203-1.289 0-2.333-.401-3.145-1.203-.812-.802-1.224-1.823-1.224-3.09 0-1.255.412-2.277 1.224-3.091zm1.186 5.134c.503.53 1.16.789 1.96.789.799 0 1.456-.26 1.959-.79.503-.53.76-1.202.76-2.043 0-.827-.257-1.513-.773-2.043-.516-.53-1.16-.802-1.96-.802-.799 0-1.443.272-1.959.802-.515.53-.773 1.216-.773 2.043.026.841.27 1.513.786 2.044zM39.677 58.946v-8.212h4.744v1.384h-3.146v1.888h1.109c.863 0 1.547.22 2.05.66.515.465.773 1.073.773 1.823 0 .543-.155 1.034-.451 1.461-.464.66-1.25.996-2.36.996h-2.72zm1.598-3.582v2.198h.76c1.02 0 1.522-.362 1.522-1.073 0-.31-.116-.582-.335-.79-.22-.219-.606-.322-1.16-.322h-.787v-.013zM46.676 50.721h2.385c.503 0 .928.039 1.25.13.323.09.632.258.916.504.554.491.838 1.15.838 1.978 0 .776-.22 1.384-.67 1.837-.478.478-1.174.724-2.076.724h-1.031v3.039h-1.599V50.72h-.013zm1.599 1.384v2.418h.644c.464 0 .812-.09 1.044-.259.297-.232.439-.556.439-.957 0-.4-.155-.71-.451-.93-.245-.169-.62-.26-1.135-.26h-.541v-.012zM58.278 58.946l-.722-1.72h-3.3l-.722 1.72h-1.727l3.545-8.38h1.198l3.455 8.38h-1.727zm-3.532-3.04h2.333l-1.147-2.948-1.186 2.949zM61.952 52.596l-.838-1.1c.709-.646 1.547-.956 2.513-.956.825 0 1.483.194 1.96.582.477.388.722.905.722 1.552 0 .776-.336 1.358-1.006 1.733.49.129.864.375 1.134.763.258.388.387.84.387 1.358 0 .775-.296 1.396-.902 1.875-.606.478-1.392.71-2.346.71-1.418 0-2.437-.516-3.081-1.55l1.044-.997c.18.414.464.712.85.918.388.207.8.298 1.225.298.516 0 .903-.116 1.173-.362.271-.233.4-.53.4-.867 0-.84-.593-1.254-1.792-1.254h-.734v-1.358h.734c.413 0 .748-.09.993-.271.245-.182.374-.44.374-.776 0-.298-.103-.544-.297-.699-.193-.168-.49-.245-.876-.245-.696 0-1.238.22-1.637.646zM69.144 51.743c.813-.802 1.87-1.203 3.146-1.203 1.289 0 2.333.4 3.145 1.203.812.801 1.225 1.836 1.225 3.09 0 1.255-.413 2.29-1.225 3.091-.812.802-1.87 1.203-3.145 1.203-1.29 0-2.333-.401-3.146-1.203-.812-.802-1.224-1.823-1.224-3.09 0-1.255.4-2.277 1.224-3.091zm1.186 5.134c.503.53 1.16.789 1.96.789.799 0 1.456-.26 1.959-.79.503-.53.76-1.202.76-2.043 0-.827-.257-1.513-.773-2.043-.515-.53-1.16-.802-1.96-.802-.798 0-1.443.272-1.959.802-.515.53-.773 1.216-.773 2.043.026.841.27 1.513.786 2.044zM78.13 50.721h2.023c.89 0 1.56.168 1.998.517.503.388.76.957.76 1.694 0 .738-.309 1.268-.915 1.617.413.065.774.233 1.07.517.387.375.593.892.593 1.54 0 .685-.232 1.24-.696 1.667-.503.44-1.186.66-2.075.66h-2.746V50.72h-.013zm1.597 1.306v2.108h.684c.064 0 .167-.026.309-.065.129-.038.245-.09.348-.168a1.058 1.058 0 0 0 .374-.84c0-.35-.116-.608-.348-.776-.232-.168-.529-.259-.89-.259h-.477zm0 3.337v2.263h.684c.477 0 .838-.078 1.095-.22.336-.194.503-.517.503-.944 0-.44-.206-.75-.606-.931-.232-.104-.593-.155-1.095-.155h-.58v-.013zM90.697 58.946l-.722-1.72h-3.3l-.721 1.72h-1.728l3.545-8.38h1.199l3.455 8.38h-1.728zm-3.519-3.04h2.333l-1.147-2.948-1.186 2.949zM94.964 50.721v3.181h3.455v-3.181h1.61v8.212h-1.597v-3.66h-3.455v3.66h-1.599V50.72zM101.886 50.721h1.599v5.522l4.511-5.703h1.109v8.393h-1.599v-5.535l-4.511 5.703h-1.109zM115.511 50.721v1.384h-2.939v1.836h2.823v1.384h-2.823v2.237h2.94v1.384h-4.538v-8.212h4.537z"/>
        </g>
        <g stroke="#F69707">
            <path d="M118.077 61.105v.776h-.774"/>
            <path stroke-dasharray="11.9666,5.9833" d="M116.53 61.892H28.99"/>
            <path d="M28.604 61.881h-.774v-.776"/>
            <path stroke-dasharray="11.5475,5.7738" d="M27.841 60.368V49.531"/>
            <path d="M27.83 49.17v-.777h.774"/>
            <path stroke-dasharray="11.9666,5.9833" d="M29.377 48.404h87.54"/>
            <path d="M117.303 48.393h.774v.776"/>
            <path stroke-dasharray="11.5475,5.7738" d="M118.087 49.906v10.837"/>
        </g>
        <path fill="#FFF" fill-rule="nonzero" d="M48.571 43.841s.323-1.552.735-2.767c.36-1.035.735-2.082 1.057-2.755.322-.672.773-1.539.812-1.655.052-.117.103-.44.103-.543 0-.104-.154-1.035-.245-1.63-.09-.582-.129-1.435-.129-1.435s.297.737 1.006 1.422c.76.737 1.83 1.397 4.099 1.32 2.295-.078 3.339-.544 4.95-1.863 1.237-1.009 2.178-2.677 2.41-3.117.233-.44.439-1.383.439-1.383s.374 1.474.631 1.952c.245.492.941 1.216 1.341 1.488.4.271 1.74.672 1.74.672L66.4 35.32s-.851-.737-1.998-.142c-1.148.607-1.496 1.176-1.792 1.732-.67 1.294-.967 2.38-1.044 3.117a484.11 484.11 0 0 0-.348 3.802s-.477-1.228-.954-2.082c-.477-.853-.993-1.397-.993-1.397s-.657.091-1.624.04c-1.34-.078-2.05-.764-3.467-.7-1.032.053-1.702.544-3.21 1.682a12.73 12.73 0 0 0-2.398 2.47z"/>
    </g>
</svg>
