<svg xmlns="http://www.w3.org/2000/svg" width="7" height="12" viewBox="0 0 7 12">
    <g fill="none" fill-rule="evenodd">
        <path d="M-7-4h20v20H-7z"/>
        <g fill="#FFF" fill-rule="nonzero">
            <path d="M3.53 6.164c1.702 0 3.083-1.381 3.083-3.082C6.613 1.382 5.232 0 3.53 0A3.084 3.084 0 0 0 .449 3.082c0 1.7 1.381 3.082 3.082 3.082zm0-4.351c.7 0 1.279.57 1.279 1.278 0 .699-.57 1.277-1.278 1.277-.7 0-1.278-.57-1.278-1.277 0-.708.57-1.278 1.278-1.278zM4.774 8.676a5.686 5.686 0 0 0 1.787-.742.899.899 0 0 0 .285-1.243.899.899 0 0 0-1.243-.285 3.901 3.901 0 0 1-4.144 0 .899.899 0 0 0-1.243.285A.899.899 0 0 0 .5 7.934a5.987 5.987 0 0 0 1.787.742L.57 10.394a.901.901 0 0 0 0 1.278.91.91 0 0 0 .639.268.875.875 0 0 0 .638-.268L3.54 9.98l1.692 1.692a.901.901 0 0 0 1.277 0 .901.901 0 0 0 0-1.278L4.774 8.676z"/>
        </g>
    </g>
</svg>
