<svg width="44" height="41" viewBox="0 0 44 41" fill="none" xmlns="http://www.w3.org/2000/svg">
<g filter="url(#filter0_d)">
<path d="M22 0L26.0413 12.4377H39.119L28.5389 20.1246L32.5801 32.5623L22 24.8754L11.4199 32.5623L15.4611 20.1246L4.88098 12.4377H17.9587L22 0Z" fill="#FFDA17"/>
<path d="M22 1.61804L25.5657 12.5922L25.678 12.9377H26.0413H37.5802L28.245 19.7201L27.9511 19.9336L28.0634 20.2791L31.6291 31.2533L22.2939 24.4709L22 24.2574L21.7061 24.4709L12.3709 31.2533L15.9366 20.2791L16.0489 19.9336L15.755 19.7201L6.41983 12.9377H17.9587H18.322L18.4343 12.5922L22 1.61804Z" stroke="#979797"/>
</g>
<defs>
<filter id="filter0_d" x="0.880981" y="0" width="42.238" height="40.5623" filterUnits="userSpaceOnUse" color-interpolation-filters="sRGB">
<feFlood flood-opacity="0" result="BackgroundImageFix"/>
<feColorMatrix in="SourceAlpha" type="matrix" values="0 0 0 0 0 0 0 0 0 0 0 0 0 0 0 0 0 0 127 0"/>
<feOffset dy="4"/>
<feGaussianBlur stdDeviation="2"/>
<feColorMatrix type="matrix" values="0 0 0 0 0 0 0 0 0 0 0 0 0 0 0 0 0 0 0.25 0"/>
<feBlend mode="normal" in2="BackgroundImageFix" result="effect1_dropShadow"/>
<feBlend mode="normal" in="SourceGraphic" in2="effect1_dropShadow" result="shape"/>
</filter>
</defs>
</svg>
