<svg xmlns="http://www.w3.org/2000/svg" width="15" height="12" viewBox="0 0 15 12">
    <g fill="none" fill-rule="evenodd">
        <path d="M-3-4h20v20H-3z"/>
        <path fill="#FFF" fill-rule="nonzero" d="M14.749 1.417c-.54.243-1.12.402-1.734.476.624-.37 1.1-.973 1.332-1.671a5.805 5.805 0 0 1-1.924.73A3.008 3.008 0 0 0 10.213 0 3.023 3.023 0 0 0 7.19 3.024c0 .232.032.465.074.687A8.595 8.595 0 0 1 1.026.55a2.957 2.957 0 0 0-.413 1.522c0 1.047.54 1.977 1.343 2.517A2.91 2.91 0 0 1 .58 4.208v.042a3.038 3.038 0 0 0 2.432 2.971 2.815 2.815 0 0 1-.793.106c-.19 0-.38-.021-.57-.053a3.03 3.03 0 0 0 2.822 2.104 6.05 6.05 0 0 1-3.753 1.3A5.36 5.36 0 0 1 0 10.636 8.596 8.596 0 0 0 4.641 12c5.572 0 8.607-4.61 8.607-8.606 0-.127 0-.264-.011-.391a6.327 6.327 0 0 0 1.512-1.586z"/>
    </g>
</svg>
