<svg xmlns="http://www.w3.org/2000/svg" width="20" height="12" viewBox="0 0 20 12">
    <g fill="none" fill-rule="evenodd">
        <path d="M0-4h20v20H0z"/>
        <path fill="#FFF" d="M9.771 11.34h1.195s.36-.037.547-.236c.174-.187.162-.523.162-.523s-.025-1.605.722-1.842c.734-.236 1.68 1.556 2.675 2.24.76.523 1.332.41 1.332.41l2.676-.036s1.393-.088.734-1.183c-.05-.087-.386-.809-1.991-2.302-1.68-1.555-1.456-1.307.572-3.995C19.627 2.231 20.112 1.235 19.963.8c-.15-.411-1.045-.3-1.045-.3l-3.012.026S15.682.5 15.52.6c-.161.1-.261.323-.261.323s-.473 1.27-1.108 2.352c-1.344 2.277-1.879 2.402-2.09 2.253-.51-.324-.386-1.32-.386-2.029 0-2.203.336-3.123-.647-3.36-.324-.075-.573-.137-1.406-.137-1.07-.012-1.979 0-2.502.261-.348.162-.61.548-.448.56.2.025.647.125.884.449.311.423.299 1.356.299 1.356s.174 2.6-.411 2.924c-.41.224-.958-.236-2.153-2.302a19.223 19.223 0 0 1-1.07-2.227S4.134.8 3.97.688C3.786.55 3.512.5 3.512.5L.65.513s-.435.013-.585.2c-.137.161-.012.51-.012.51S2.292 6.462 4.83 9.1c2.302 2.402 4.94 2.24 4.94 2.24z"/>
    </g>
</svg>
