<svg xmlns="http://www.w3.org/2000/svg" width="10" height="12" viewBox="0 0 10 12">
    <g fill="none" fill-rule="evenodd">
        <path d="M-5-4h20v20H-5z"/>
        <g fill="#FFF">
            <g fill-rule="nonzero">
                <path d="M8.086 7.975c-.194 0-.294.15-.294.442v.291h.58v-.291c0-.3-.093-.442-.286-.442z"/>
                <path d="M9.506 6.358a1.2 1.2 0 0 0-1.042-.933c-1.194-.133-2.404-.133-3.606-.133s-2.412 0-3.606.133a1.222 1.222 0 0 0-1.042.933C.042 7.083.042 7.867.042 8.617c0 .741 0 1.533.168 2.258a1.2 1.2 0 0 0 1.042.933c1.194.134 2.404.134 3.606.134s2.412 0 3.606-.134a1.222 1.222 0 0 0 1.042-.933c.168-.725.168-1.508.168-2.258s0-1.542-.168-2.259zm-6.707.65H2.1v3.667h-.647V7.008h-.68v-.6h2.025v.6zm1.757 3.667h-.58v-.35c-.236.267-.454.392-.664.392-.185 0-.32-.075-.379-.234-.033-.1-.05-.25-.05-.475V7.492h.58v2.341c0 .134 0 .209.008.225.017.092.06.134.135.134.117 0 .235-.092.37-.267V7.492h.58v3.183zm2.21-.958c0 .291-.017.508-.059.641-.075.234-.235.359-.462.359-.21 0-.403-.117-.597-.35v.308h-.58V6.408h.58V7.8c.185-.225.387-.342.597-.342.235 0 .387.117.462.359.042.125.06.341.06.641v1.259zm2.194-.525H7.8v.566c0 .292.1.442.294.442.143 0 .227-.075.26-.233.01-.034.018-.159.018-.392h.596v.083c0 .184-.008.317-.008.375a.812.812 0 0 1-.135.342c-.16.233-.403.342-.706.342-.302 0-.538-.109-.706-.325-.126-.159-.185-.409-.185-.75V8.525c0-.342.06-.592.177-.75.168-.217.403-.325.698-.325.294 0 .52.108.689.325.117.158.176.408.176.75v.667H8.96z"/>
                <path d="M5.926 7.975a.392.392 0 0 0-.286.142v1.941c.1.1.193.142.286.142.168 0 .252-.142.252-.433V8.408c0-.291-.084-.433-.252-.433z"/>
            </g>
            <path d="M3.694 0h-.639l-.434 1.743L2.171 0H1.5c.131.412.27.824.41 1.237.204.618.327 1.09.384 1.408v1.803h.638V2.645L3.694 0zm1.694 3.375v-1.16c0-.351-.057-.61-.18-.78a.782.782 0 0 0-.671-.344.748.748 0 0 0-.663.343c-.123.172-.18.43-.18.782v1.159c0 .352.057.61.18.781a.77.77 0 0 0 .663.335.784.784 0 0 0 .671-.335c.123-.163.18-.429.18-.781zm-.573.112c0 .309-.09.463-.27.463-.188 0-.27-.154-.27-.463V2.095c0-.309.09-.455.27-.455.188 0 .27.155.27.455v1.392zm2.685.961V1.134h-.573v2.533c-.123.189-.246.283-.36.283-.074 0-.123-.051-.131-.137-.008-.017-.008-.094-.008-.232V1.142h-.573v2.62c0 .231.016.394.049.489.057.172.18.249.368.249.205 0 .426-.137.655-.404v.361H7.5v-.009z"/>
        </g>
    </g>
</svg>
