<svg width="40" height="32" viewBox="0 0 40 32" fill="none" xmlns="http://www.w3.org/2000/svg">
<path fill-rule="evenodd" clip-rule="evenodd" d="M2 11L20.5 1L39 11V24.3333H35.6364V12.8167L20.5 21L2 11ZM8.72726 24.6333V17.9667L20.5 24.3333L32.2727 17.9667V24.6333L20.5 31L8.72726 24.6333Z" fill="#FFDA17"/>
<path d="M20.5 1L20.7378 0.560147L20.5 0.431629L20.2622 0.560147L20.5 1ZM2 11L1.76224 10.5601L0.948513 11L1.76224 11.4399L2 11ZM39 11H39.5V10.7019L39.2378 10.5601L39 11ZM39 24.3333V24.8333H39.5V24.3333H39ZM35.6364 24.3333H35.1364V24.8333H35.6364V24.3333ZM35.6364 12.8167H36.1364V11.978L35.3986 12.3768L35.6364 12.8167ZM20.5 21L20.2622 21.4399L20.5 21.5684L20.7378 21.4398L20.5 21ZM8.72726 17.9667L8.96511 17.5269L8.22726 17.1278V17.9667H8.72726ZM8.72726 24.6333H8.22726V24.9314L8.48942 25.0731L8.72726 24.6333ZM20.5 24.3333L20.2621 24.7731L20.5 24.9018L20.7378 24.7731L20.5 24.3333ZM32.2727 17.9667H32.7727V17.1278L32.0349 17.5269L32.2727 17.9667ZM32.2727 24.6333L32.5106 25.0731L32.7727 24.9314V24.6333H32.2727ZM20.5 31L20.2621 31.4398L20.5 31.5684L20.7378 31.4398L20.5 31ZM20.2622 0.560147L1.76224 10.5601L2.23776 11.4399L20.7378 1.43985L20.2622 0.560147ZM39.2378 10.5601L20.7378 0.560147L20.2622 1.43985L38.7622 11.4399L39.2378 10.5601ZM39.5 24.3333V11H38.5V24.3333H39.5ZM35.6364 24.8333H39V23.8333H35.6364V24.8333ZM35.1364 12.8167V24.3333H36.1364V12.8167H35.1364ZM20.7378 21.4398L35.8742 13.2565L35.3986 12.3768L20.2622 20.5602L20.7378 21.4398ZM1.76224 11.4399L20.2622 21.4399L20.7378 20.5601L2.23776 10.5601L1.76224 11.4399ZM8.22726 17.9667V24.6333H9.22726V17.9667H8.22726ZM20.7378 23.8935L8.96511 17.5269L8.48942 18.4065L20.2621 24.7731L20.7378 23.8935ZM32.0349 17.5269L20.2621 23.8935L20.7378 24.7731L32.5106 18.4065L32.0349 17.5269ZM32.7727 24.6333V17.9667H31.7727V24.6333H32.7727ZM20.7378 31.4398L32.5106 25.0731L32.0349 24.1935L20.2621 30.5602L20.7378 31.4398ZM8.48942 25.0731L20.2621 31.4398L20.7378 30.5602L8.96511 24.1935L8.48942 25.0731Z" fill="#979797"/>
</svg>