<svg width="34" height="34" viewBox="0 0 34 34" fill="none" xmlns="http://www.w3.org/2000/svg">
<path fill-rule="evenodd" clip-rule="evenodd" d="M29.5 17C29.5 17.5666 29.45 18.1 29.3833 18.6333L32.9 21.3833C33.2166 21.6333 33.3 22.0833 33.1 22.45L29.7666 28.2166C29.5666 28.5833 29.1333 28.7333 28.75 28.5833L24.6 26.9166C23.7333 27.5666 22.8 28.1333 21.7833 28.55L21.15 32.9666C21.1 33.3666 20.75 33.6666 20.3333 33.6666H13.6666C13.25 33.6666 12.9 33.3666 12.85 32.9666L12.2166 28.55C11.2 28.1333 10.2666 27.5833 9.39998 26.9166L5.24998 28.5833C4.88331 28.7166 4.43331 28.5833 4.23331 28.2166L0.899976 22.45C0.699977 22.0833 0.78331 21.6333 1.09998 21.3833L4.61664 18.6333C4.54998 18.1 4.49998 17.55 4.49998 17C4.49998 16.45 4.54998 15.9 4.61664 15.3666L1.09998 12.6166C0.78331 12.3666 0.68331 11.9166 0.899976 11.55L4.23331 5.78331C4.43331 5.41665 4.86664 5.26665 5.24998 5.41665L9.39998 7.08331C10.2666 6.43331 11.2 5.86665 12.2166 5.44998L12.85 1.03331C12.9 0.633313 13.25 0.333313 13.6666 0.333313H20.3333C20.75 0.333313 21.1 0.633313 21.15 1.03331L21.7833 5.44998C22.8 5.86665 23.7333 6.41665 24.6 7.08331L28.75 5.41665C29.1166 5.28331 29.5666 5.41665 29.7666 5.78331L33.1 11.55C33.3 11.9166 33.2166 12.3666 32.9 12.6166L29.3833 15.3666C29.45 15.9 29.5 16.4333 29.5 17ZM11.1666 17C11.1666 20.2166 13.7833 22.8333 17 22.8333C20.2166 22.8333 22.8333 20.2166 22.8333 17C22.8333 13.7833 20.2166 11.1666 17 11.1666C13.7833 11.1666 11.1666 13.7833 11.1666 17Z" fill="black" fill-opacity="0.54"/>
</svg>