<svg width="18" height="18" viewBox="0 0 18 18" fill="none" xmlns="http://www.w3.org/2000/svg">
<path d="M6.08404 8.99994C6.08404 7.38917 7.38947 6.08304 9.00024 6.08304C10.611 6.08304 11.9171 7.38917 11.9171 8.99994C11.9171 10.6107 10.611 11.9168 9.00024 11.9168C7.38947 11.9168 6.08404 10.6107 6.08404 8.99994ZM4.50722 8.99994C4.50722 11.4814 6.51874 13.493 9.00024 13.493C11.4817 13.493 13.4933 11.4814 13.4933 8.99994C13.4933 6.51844 11.4817 4.50692 9.00024 4.50692C6.51874 4.50692 4.50722 6.51844 4.50722 8.99994ZM12.6211 4.32877C12.621 4.53644 12.6825 4.73947 12.7979 4.91219C12.9132 5.08491 13.0771 5.21955 13.2689 5.2991C13.4608 5.37865 13.6719 5.39953 13.8756 5.35909C14.0793 5.31866 14.2664 5.21873 14.4133 5.07195C14.5602 4.92516 14.6603 4.73811 14.7009 4.53444C14.7415 4.33078 14.7208 4.11965 14.6414 3.92776C14.562 3.73586 14.4275 3.57182 14.2548 3.45638C14.0822 3.34093 13.8792 3.27927 13.6716 3.27919H13.6711C13.3928 3.27932 13.1258 3.38993 12.929 3.58672C12.7321 3.78352 12.6214 4.0504 12.6211 4.32877ZM5.46524 16.1222C4.61215 16.0834 4.14847 15.9413 3.84033 15.8212C3.43181 15.6622 3.14033 15.4728 2.83387 15.1667C2.52741 14.8607 2.33771 14.5695 2.17937 14.161C2.05925 13.853 1.91715 13.3891 1.87837 12.5361C1.83595 11.6137 1.82748 11.3367 1.82748 9.00001C1.82748 6.66334 1.83665 6.38705 1.87837 5.46396C1.91722 4.61087 2.06037 4.14796 2.17937 3.83905C2.33841 3.43053 2.52783 3.13905 2.83387 2.83259C3.13991 2.52613 3.43111 2.33643 3.84033 2.17809C4.14833 2.05797 4.61215 1.91587 5.46524 1.87709C6.38756 1.83467 6.66462 1.8262 9.00024 1.8262C11.3359 1.8262 11.6132 1.83537 12.5363 1.87709C13.3894 1.91594 13.8523 2.05909 14.1612 2.17809C14.5697 2.33643 14.8612 2.52655 15.1677 2.83259C15.4741 3.13863 15.6631 3.43053 15.8222 3.83905C15.9423 4.14705 16.0844 4.61087 16.1232 5.46396C16.1656 6.38705 16.1741 6.66334 16.1741 9.00001C16.1741 11.3367 16.1656 11.613 16.1232 12.5361C16.0843 13.3891 15.9415 13.8528 15.8222 14.161C15.6631 14.5695 15.4737 14.861 15.1677 15.1667C14.8616 15.4725 14.5697 15.6622 14.1612 15.8212C13.8532 15.9413 13.3894 16.0834 12.5363 16.1222C11.614 16.1646 11.3369 16.1731 9.00024 16.1731C6.66357 16.1731 6.38728 16.1646 5.46524 16.1222ZM5.39279 0.302929C4.4613 0.345349 3.82479 0.493049 3.26892 0.709349C2.69324 0.932719 2.2059 1.23239 1.71891 1.71861C1.23192 2.20483 0.933024 2.69294 0.709654 3.26862C0.493354 3.82484 0.345654 4.461 0.303234 5.39249C0.260114 6.32545 0.250244 6.62372 0.250244 8.99994C0.250244 11.3762 0.260114 11.6744 0.303234 12.6074C0.345654 13.5389 0.493354 14.175 0.709654 14.7313C0.933024 15.3066 1.23199 15.7953 1.71891 16.2813C2.20583 16.7673 2.69324 17.0665 3.26892 17.2905C3.82584 17.5068 4.4613 17.6545 5.39279 17.6969C6.32624 17.7394 6.62402 17.7499 9.00024 17.7499C11.3765 17.7499 11.6747 17.7401 12.6077 17.6969C13.5393 17.6545 14.1753 17.5068 14.7316 17.2905C15.3069 17.0665 15.7946 16.7675 16.2816 16.2813C16.7686 15.795 17.0668 15.3066 17.2908 14.7313C17.5071 14.175 17.6555 13.5389 17.6973 12.6074C17.7397 11.6737 17.7495 11.3762 17.7495 8.99994C17.7495 6.62372 17.7397 6.32545 17.6973 5.39249C17.6548 4.46093 17.5071 3.82449 17.2908 3.26862C17.0668 2.69329 16.7678 2.2056 16.2816 1.71861C15.7954 1.23162 15.3069 0.932719 14.7323 0.709349C14.1753 0.493049 13.5392 0.344649 12.6084 0.302929C11.6754 0.260509 11.3772 0.249939 9.00094 0.249939C6.62472 0.249939 6.32624 0.259809 5.39279 0.302929Z" fill="#525252"/>
</svg>