<svg width="12" height="20" viewBox="0 0 12 20" fill="none" xmlns="http://www.w3.org/2000/svg">
<path d="M5.9997 3.49005C7.09965 3.49005 7.99437 4.38477 7.99437 5.48472C7.99437 6.58374 7.09942 7.47846 5.9997 7.47846C4.90045 7.47846 4.0055 6.58374 4.0055 5.48472C4.00527 4.38454 4.90068 3.49005 5.9997 3.49005ZM5.9997 10.3005C8.65664 10.3005 10.8173 8.1405 10.8173 5.48472C10.8173 2.82755 8.65687 0.666626 5.9997 0.666626C3.343 0.666626 1.18207 2.82778 1.18207 5.48472C1.18207 8.1405 3.343 10.3005 5.9997 10.3005ZM7.94871 14.2301C8.93977 14.0044 9.88555 13.6128 10.7461 13.0718C11.0629 12.8725 11.2875 12.5555 11.3706 12.1906C11.4537 11.8256 11.3884 11.4426 11.1891 11.1258C11.0905 10.9688 10.9619 10.8327 10.8107 10.7255C10.6595 10.6182 10.4887 10.5417 10.3079 10.5005C10.1272 10.4593 9.94004 10.4541 9.75729 10.4853C9.57453 10.5165 9.39971 10.5834 9.24282 10.6821C7.26914 11.923 4.72888 11.9221 2.75682 10.6821C2.59996 10.5833 2.42515 10.5164 2.24241 10.4852C2.05966 10.4541 1.87256 10.4592 1.69181 10.5004C1.51106 10.5417 1.34022 10.6181 1.18904 10.7254C1.03787 10.8327 0.909341 10.9688 0.81081 11.1258C0.611438 11.4425 0.54603 11.8255 0.628973 12.1904C0.711915 12.5553 0.936414 12.8724 1.25309 13.0718C2.11356 13.6126 3.05915 14.0042 4.05001 14.2301L1.35686 16.9237C1.0922 17.1885 0.943553 17.5475 0.943618 17.9219C0.943683 18.2962 1.09246 18.6552 1.35721 18.9199C1.62196 19.1845 1.98101 19.3332 2.35536 19.3331C2.72972 19.3331 3.08871 19.1843 3.35337 18.9195L5.99924 16.2732L8.64673 18.9198C8.77763 19.0509 8.93309 19.1549 9.10422 19.2258C9.27536 19.2968 9.4588 19.3333 9.64406 19.3333C9.82932 19.3333 10.0128 19.2968 10.1839 19.2258C10.355 19.1549 10.5105 19.0509 10.6414 18.9198C10.7727 18.7889 10.8768 18.6334 10.9479 18.4621C11.019 18.2909 11.0556 18.1074 11.0556 17.922C11.0556 17.7366 11.019 17.553 10.9479 17.3818C10.8768 17.2106 10.7727 17.0551 10.6414 16.9242L7.94871 14.2301Z" fill="#525252"/>
</svg>