<svg width="42" height="39" viewBox="0 0 42 39" fill="none" xmlns="http://www.w3.org/2000/svg">
<g filter="url(#filter0_d)">
<path d="M21 0L24.7971 11.7738L37.168 11.7467L27.1438 18.9963L30.9923 30.7533L21 23.46L11.0077 30.7533L14.8562 18.9963L4.83204 11.7467L17.2029 11.7738L21 0Z" fill="#FFDA17"/>
<path d="M21 1.62899L24.3212 11.9272L24.4332 12.2745L24.7982 12.2737L35.6187 12.2501L26.8508 18.5911L26.5551 18.805L26.6686 19.1518L30.0348 29.4354L21.2948 23.0561L21 22.841L20.7052 23.0561L11.9652 29.4354L15.3314 19.1518L15.4449 18.805L15.1492 18.5911L6.38131 12.2501L17.2018 12.2737L17.5668 12.2745L17.6788 11.9272L21 1.62899Z" stroke="#979797"/>
</g>
<defs>
<filter id="filter0_d" x="0.832031" y="0" width="40.3359" height="38.7533" filterUnits="userSpaceOnUse" color-interpolation-filters="sRGB">
<feFlood flood-opacity="0" result="BackgroundImageFix"/>
<feColorMatrix in="SourceAlpha" type="matrix" values="0 0 0 0 0 0 0 0 0 0 0 0 0 0 0 0 0 0 127 0"/>
<feOffset dy="4"/>
<feGaussianBlur stdDeviation="2"/>
<feColorMatrix type="matrix" values="0 0 0 0 0 0 0 0 0 0 0 0 0 0 0 0 0 0 0.25 0"/>
<feBlend mode="normal" in2="BackgroundImageFix" result="effect1_dropShadow"/>
<feBlend mode="normal" in="SourceGraphic" in2="effect1_dropShadow" result="shape"/>
</filter>
</defs>
</svg>