<svg width="45" height="57" viewBox="0 0 45 57" fill="none" xmlns="http://www.w3.org/2000/svg">
<path d="M37.1429 41.2759H35.6429C35.6429 41.6204 35.7615 41.9545 35.9788 42.2219L37.1429 41.2759ZM43 48.4828V49.9828C43.5787 49.9828 44.1058 49.6499 44.3544 49.1273C44.6031 48.6048 44.529 47.9858 44.1641 47.5367L43 48.4828ZM2 48.4828L0.835951 47.5367C0.470972 47.9858 0.396879 48.6048 0.645552 49.1273C0.894225 49.6499 1.42131 49.9828 2 49.9828L2 48.4828ZM7.85714 41.2759L9.02119 42.2219C9.23851 41.9545 9.35714 41.6204 9.35714 41.2759H7.85714ZM22.5 5.70691C13.5845 5.70691 6.35714 12.9343 6.35714 21.8498H9.35714C9.35714 14.5912 15.2414 8.70691 22.5 8.70691V5.70691ZM38.6429 21.8498C38.6429 12.9343 31.4155 5.70691 22.5 5.70691V8.70691C29.7586 8.70691 35.6429 14.5912 35.6429 21.8498H38.6429ZM38.6429 41.2759V21.8498H35.6429V41.2759H38.6429ZM35.9788 42.2219L41.8359 49.4288L44.1641 47.5367L38.3069 40.3298L35.9788 42.2219ZM43 46.9828H2V49.9828H43V46.9828ZM3.16405 49.4288L9.02119 42.2219L6.69309 40.3298L0.835951 47.5367L3.16405 49.4288ZM6.35714 21.8498V41.2759H9.35714V21.8498H6.35714Z" fill="#1A70DB"/>
<path fill-rule="evenodd" clip-rule="evenodd" d="M19.5714 51.7587V53.7461C19.5714 55.5432 21.0283 57 22.8254 57C24.6225 57 26.0793 55.5432 26.0793 53.7461V51.7587H19.5714Z" fill="#1A70DB"/>
<path fill-rule="evenodd" clip-rule="evenodd" d="M22.8253 0C21.3876 0 20.2222 1.16548 20.2222 2.60317V7.86207H25.4285V2.60317C25.4285 1.16548 24.263 0 22.8253 0Z" fill="#1A70DB"/>
</svg>