<svg width="17" height="20" viewBox="0 0 17 20" fill="none" xmlns="http://www.w3.org/2000/svg">
<path d="M13.8571 14.4827H13.3571C13.3571 14.7588 13.581 14.9827 13.8571 14.9827V14.4827ZM13.8571 14.4827L14.2386 14.1594C14.1436 14.0473 14.0041 13.9827 13.8571 13.9827V14.4827ZM16 17.0114V17.5114C16.1948 17.5114 16.3718 17.3983 16.4537 17.2216C16.5355 17.0449 16.5074 16.8368 16.3815 16.6882L16 17.0114ZM1 17.0114L0.618542 16.6882C0.492634 16.8368 0.464456 17.0449 0.546335 17.2216C0.628213 17.3983 0.805246 17.5114 1 17.5114L1 17.0114ZM3.14283 14.4827L3.52429 14.806C3.60083 14.7156 3.64283 14.6011 3.64283 14.4827H3.14283ZM8.49998 2.02869C5.26516 2.02869 2.64283 4.65103 2.64283 7.88584H3.64283C3.64283 5.20331 5.81745 3.02869 8.49998 3.02869V2.02869ZM14.3571 7.88583C14.3571 4.65102 11.7348 2.02869 8.49998 2.02869V3.02869C11.1825 3.02869 13.3571 5.2033 13.3571 7.88583H14.3571ZM14.3571 14.4827V7.88583H13.3571V14.4827H14.3571ZM13.8571 14.9827H13.8571V13.9827H13.8571V14.9827ZM13.4757 14.8059L15.6185 17.3347L16.3815 16.6882L14.2386 14.1594L13.4757 14.8059ZM16 16.5114H1V17.5114H16V16.5114ZM1.38146 17.3347L3.52429 14.806L2.76138 14.1595L0.618542 16.6882L1.38146 17.3347ZM2.64283 7.88584V14.4827H3.64283V7.88584H2.64283Z" fill="#1A70DB"/>
<path fill-rule="evenodd" clip-rule="evenodd" d="M7.42847 18.1609V18.8095C7.42847 19.467 7.96146 20 8.61894 20C9.27642 20 9.80942 19.467 9.80942 18.8095V18.1609H7.42847Z" fill="#1A70DB"/>
<path fill-rule="evenodd" clip-rule="evenodd" d="M8.61937 0C8.09339 0 7.66699 0.426396 7.66699 0.952382V2.75861H9.57175V0.952381C9.57175 0.426395 9.14536 0 8.61937 0Z" fill="#1A70DB"/>
</svg>