<svg width="28" height="28" viewBox="0 0 28 28" fill="none" xmlns="http://www.w3.org/2000/svg">
<g clip-path="url(#clip0)">
<rect y="-6.10352e-05" width="28.3014" height="28.3014" rx="14.1507" fill="white"/>
<path d="M11.0841 13.9999C11.0841 12.3892 12.3895 11.083 14.0003 11.083C15.6111 11.083 16.9172 12.3892 16.9172 13.9999C16.9172 15.6107 15.6111 16.9168 14.0003 16.9168C12.3895 16.9168 11.0841 15.6107 11.0841 13.9999ZM9.50728 13.9999C9.50728 16.4814 11.5188 18.493 14.0003 18.493C16.4818 18.493 18.4933 16.4814 18.4933 13.9999C18.4933 11.5184 16.4818 9.50692 14.0003 9.50692C11.5188 9.50692 9.50728 11.5184 9.50728 13.9999ZM17.6212 9.32877C17.6211 9.53644 17.6826 9.73947 17.7979 9.91219C17.9132 10.0849 18.0772 10.2196 18.269 10.2991C18.4608 10.3786 18.6719 10.3995 18.8756 10.3591C19.0793 10.3187 19.2665 10.2187 19.4134 10.0719C19.5603 9.92516 19.6603 9.73811 19.7009 9.53444C19.7415 9.33078 19.7208 9.11965 19.6414 8.92776C19.562 8.73586 19.4275 8.57182 19.2549 8.45638C19.0823 8.34093 18.8793 8.27927 18.6716 8.27919H18.6712C18.3928 8.27932 18.1259 8.38993 17.929 8.58672C17.7321 8.78352 17.6214 9.0504 17.6212 9.32877ZM10.4653 21.1222C9.61221 21.0834 9.14853 20.9413 8.84039 20.8212C8.43187 20.6622 8.14039 20.4728 7.83393 20.1667C7.52747 19.8607 7.33777 19.5695 7.17943 19.161C7.05931 18.853 6.91721 18.3891 6.87843 17.5361C6.83601 16.6137 6.82754 16.3367 6.82754 14C6.82754 11.6633 6.83671 11.387 6.87843 10.464C6.91728 9.61087 7.06043 9.14796 7.17943 8.83905C7.33847 8.43053 7.52789 8.13905 7.83393 7.83259C8.13997 7.52613 8.43117 7.33643 8.84039 7.17809C9.14839 7.05797 9.61221 6.91587 10.4653 6.87709C11.3876 6.83467 11.6647 6.8262 14.0003 6.8262C16.3359 6.8262 16.6133 6.83537 17.5364 6.87709C18.3894 6.91594 18.8524 7.05909 19.1613 7.17809C19.5698 7.33643 19.8613 7.52655 20.1677 7.83259C20.4742 8.13863 20.6632 8.43053 20.8222 8.83905C20.9423 9.14705 21.0844 9.61087 21.1232 10.464C21.1656 11.387 21.1741 11.6633 21.1741 14C21.1741 16.3367 21.1656 16.613 21.1232 17.5361C21.0844 18.3891 20.9416 18.8528 20.8222 19.161C20.6632 19.5695 20.4738 19.861 20.1677 20.1667C19.8617 20.4725 19.5698 20.6622 19.1613 20.8212C18.8533 20.9413 18.3894 21.0834 17.5364 21.1222C16.614 21.1646 16.337 21.1731 14.0003 21.1731C11.6636 21.1731 11.3873 21.1646 10.4653 21.1222ZM10.3929 5.30293C9.46136 5.34535 8.82485 5.49305 8.26898 5.70935C7.6933 5.93272 7.20596 6.23239 6.71897 6.71861C6.23198 7.20483 5.93309 7.69294 5.70972 8.26862C5.49342 8.82484 5.34572 9.461 5.3033 10.3925C5.26018 11.3254 5.25031 11.6237 5.25031 13.9999C5.25031 16.3762 5.26018 16.6744 5.3033 17.6074C5.34572 18.5389 5.49342 19.175 5.70972 19.7313C5.93309 20.3066 6.23206 20.7953 6.71897 21.2813C7.20589 21.7673 7.6933 22.0665 8.26898 22.2905C8.8259 22.5068 9.46136 22.6545 10.3929 22.6969C11.3263 22.7394 11.6241 22.7499 14.0003 22.7499C16.3765 22.7499 16.6748 22.7401 17.6078 22.6969C18.5393 22.6545 19.1754 22.5068 19.7316 22.2905C20.307 22.0665 20.7946 21.7675 21.2816 21.2813C21.7686 20.795 22.0669 20.3066 22.2909 19.7313C22.5072 19.175 22.6556 18.5389 22.6973 17.6074C22.7397 16.6737 22.7496 16.3762 22.7496 13.9999C22.7496 11.6237 22.7397 11.3254 22.6973 10.3925C22.6549 9.46093 22.5072 8.82449 22.2909 8.26862C22.0669 7.69329 21.7679 7.2056 21.2816 6.71861C20.7954 6.23162 20.307 5.93272 19.7323 5.70935C19.1754 5.49305 18.5392 5.34465 17.6085 5.30293C16.6755 5.26051 16.3772 5.24994 14.001 5.24994C11.6248 5.24994 11.3263 5.25981 10.3929 5.30293Z" fill="#525252"/>
</g>
<defs>
<clipPath id="clip0">
<rect width="28" height="28" fill="white"/>
</clipPath>
</defs>
</svg>