<svg width="28" height="28" viewBox="0 0 28 28" fill="none" xmlns="http://www.w3.org/2000/svg">
<g clip-path="url(#clip0)">
<rect y="-6.10352e-05" width="28.3014" height="28.3014" rx="14.1507" fill="white"/>
<path fill-rule="evenodd" clip-rule="evenodd" d="M17.1124 20.9323C18.091 21.3604 18.4579 20.4634 18.4579 20.4634L21.047 7.45692C21.0266 6.5803 19.8442 7.11035 19.8442 7.11035L5.34948 12.7982C5.34948 12.7982 4.65635 13.0428 4.71751 13.4709C4.77866 13.899 5.3291 14.1029 5.3291 14.1029L8.97826 15.3261C8.97826 15.3261 10.0791 18.9345 10.3034 19.6276C10.5072 20.3004 10.6907 20.3207 10.6907 20.3207C10.8946 20.4023 11.0781 20.2596 11.0781 20.2596L13.4429 18.119L17.1124 20.9323ZM17.7445 9.76061C17.7445 9.76061 18.2542 9.45482 18.2338 9.76061C18.2338 9.76061 18.3153 9.80139 18.0503 10.0868C17.8057 10.3314 12.0363 15.5096 11.2617 16.2027C11.2005 16.2435 11.1597 16.3047 11.1597 16.3862L10.9355 18.3025C10.8947 18.5064 10.6297 18.5268 10.5685 18.3433L9.61035 15.2038C9.56958 15.0815 9.61035 14.9388 9.73267 14.8572L17.7445 9.76061Z" fill="#525252"/>
</g>
<defs>
<clipPath id="clip0">
<rect width="28" height="28" fill="white"/>
</clipPath>
</defs>
</svg>