<svg width="28" height="28" viewBox="0 0 28 28" fill="none" xmlns="http://www.w3.org/2000/svg">
<g clip-path="url(#clip0)">
<rect y="-6.10352e-05" width="28.3014" height="28.3014" rx="14.1507" fill="white"/>
<path fill-rule="evenodd" clip-rule="evenodd" d="M20.8471 8.24833C21.5967 8.45014 22.1877 9.04116 22.3895 9.79074C22.7643 11.1602 22.7499 14.0144 22.7499 14.0144C22.7499 14.0144 22.7499 16.8541 22.3895 18.2236C22.1877 18.9732 21.5967 19.5642 20.8471 19.766C19.4777 20.1264 14 20.1264 14 20.1264C14 20.1264 8.53664 20.1264 7.15279 19.7516C6.40321 19.5498 5.81219 18.9587 5.61038 18.2092C5.25 16.8541 5.25 14 5.25 14C5.25 14 5.25 11.1602 5.61038 9.79074C5.81219 9.04116 6.41762 8.43572 7.15279 8.23391C8.52223 7.87354 14 7.87354 14 7.87354C14 7.87354 19.4777 7.87354 20.8471 8.24833ZM16.8107 13.9998L12.2556 16.6233V11.3762L16.8107 13.9998Z" fill="#525252"/>
</g>
<defs>
<clipPath id="clip0">
<rect width="28" height="28" fill="white"/>
</clipPath>
</defs>
</svg>