<svg width="24" height="25" viewBox="0 0 24 25" fill="none" xmlns="http://www.w3.org/2000/svg">
<path d="M19.8572 19.7242H18.8572C18.8572 19.9572 18.9385 20.1828 19.0872 20.3622L19.8572 19.7242ZM23 23.5172V24.5172C23.3875 24.5172 23.7401 24.2934 23.905 23.9427C24.0698 23.592 24.0173 23.1776 23.77 22.8792L23 23.5172ZM1 23.5172L0.229978 22.8792C-0.0172589 23.1776 -0.069849 23.592 0.0950089 23.9427C0.259867 24.2934 0.612492 24.5172 1 24.5172L1 23.5172ZM4.14286 19.7241V18.7241C3.84509 18.7241 3.56282 18.8568 3.37284 19.0861L4.14286 19.7241ZM4.14292 19.7241V20.7241C4.6952 20.7241 5.14292 20.2764 5.14292 19.7241H4.14292ZM12.0001 0.793091C7.10839 0.793091 3.14292 4.75857 3.14292 9.65024H5.14292C5.14292 5.86314 8.21296 2.79309 12.0001 2.79309V0.793091ZM20.8572 9.65024C20.8572 4.75857 16.8917 0.793091 12.0001 0.793091V2.79309C15.7872 2.79309 18.8572 5.86314 18.8572 9.65024H20.8572ZM20.8572 19.7242V9.65024H18.8572V19.7242H20.8572ZM19.0872 20.3622L22.23 24.1553L23.77 22.8792L20.6272 19.0862L19.0872 20.3622ZM23 22.5172H1V24.5172H23V22.5172ZM1.77002 24.1553L4.91288 20.3622L3.37284 19.0861L0.229978 22.8792L1.77002 24.1553ZM4.14286 20.7241H4.14292V18.7241H4.14286V20.7241ZM3.14292 9.65024V19.7241H5.14292V9.65024H3.14292Z" fill="#1A70DB"/>
</svg>