<svg width="24" height="24" viewBox="0 0 24 24" fill="none" xmlns="http://www.w3.org/2000/svg">
<path fill-rule="evenodd" clip-rule="evenodd" d="M5.33333 0C6.06971 0 6.66667 0.596954 6.66667 1.33333V2.66665H17.3334V1.33333C17.3334 0.596954 17.9304 0 18.6667 0C19.4031 0 20.0001 0.596954 20.0001 1.33333V2.66665C22.2092 2.66669 24 4.45753 24 6.66665V20C24 22.2091 22.2091 24 20 24H4C1.79086 24 0 22.2091 0 20V6.66665C0 4.45751 1.79086 2.66665 4 2.66665V1.33333C4 0.596954 4.59695 0 5.33333 0ZM21.3332 9.33333H2.6665V20C2.6665 20.7364 3.26346 21.3334 3.99984 21.3334H19.9998C20.7362 21.3334 21.3332 20.7364 21.3332 20V9.33333ZM8.00016 12H5.3335V14.6667H8.00016V12ZM10.6665 12H13.3332V14.6667H10.6665V12ZM18.6667 12H16V14.6667H18.6667V12ZM16 16H18.6667V18.6667H16V16ZM13.3332 16H10.6665V18.6667H13.3332V16ZM5.3335 16H8.00016V18.6667H5.3335V16Z" fill="#FC8A15"/>
</svg>