<svg width="18" height="22" viewBox="0 0 18 22" fill="none" xmlns="http://www.w3.org/2000/svg">
<path fill-rule="evenodd" clip-rule="evenodd" d="M9 6C10.11 6 11 5.1 11 4C11 3.62 10.9 3.27 10.71 2.97L9 0L7.29 2.97C7.1 3.27 7 3.62 7 4C7 5.1 7.9 6 9 6ZM13.6 15.99L12.53 14.92L11.45 15.99C10.15 17.29 7.87 17.3 6.56 15.99L5.49 14.92L4.4 15.99C3.75 16.64 2.88 17 1.96 17C1.23 17 0.56 16.77 0 16.39V21C0 21.55 0.45 22 1 22H17C17.55 22 18 21.55 18 21V16.39C17.44 16.77 16.77 17 16.04 17C15.12 17 14.25 16.64 13.6 15.99ZM10 9H15C16.66 9 18 10.34 17.99 12V13.54C17.99 14.62 17.11 15.5 16.03 15.5C15.51 15.5 15.02 15.3 14.65 14.93L12.52 12.8L10.38 14.93C9.64 15.67 8.35 15.67 7.61 14.93L5.48 12.8L3.34 14.93C2.98 15.3 2.48 15.5 1.96 15.5C0.88 15.5 0 14.62 0 13.54V12C0 10.34 1.34 9 3 9H8V7H10V9Z" fill="black" fill-opacity="0.54"/>
</svg>