<svg width="36" height="30" viewBox="0 0 36 30" fill="none" xmlns="http://www.w3.org/2000/svg">
<g filter="url(#filter0_d)">
<path fill-rule="evenodd" clip-rule="evenodd" d="M6 7.66669L18.5 1L31 7.66669V16.5556H28.7273V8.87781L18.5 14.3334L6 7.66669ZM10.5454 16.7554V12.3109L18.5 16.5554L26.4545 12.3109V16.7554L18.5 20.9999L10.5454 16.7554Z" fill="#FFDA17"/>
<path d="M18.5 1L18.7353 0.558824L18.5 0.433333L18.2647 0.558824L18.5 1ZM6 7.66669L5.76471 7.22552L4.9375 7.66669L5.76471 8.10787L6 7.66669ZM31 7.66669H31.5V7.36669L31.2353 7.22552L31 7.66669ZM31 16.5556V17.0556H31.5V16.5556H31ZM28.7273 16.5556H28.2273V17.0556H28.7273V16.5556ZM28.7273 8.87781H29.2273V8.0444L28.4919 8.43665L28.7273 8.87781ZM18.5 14.3334L18.2647 14.7746L18.5 14.9001L18.7353 14.7745L18.5 14.3334ZM10.5454 12.3109L10.7808 11.8698L10.0454 11.4774V12.3109H10.5454ZM10.5454 16.7554H10.0454V17.0553L10.31 17.1965L10.5454 16.7554ZM18.5 16.5554L18.2646 16.9965L18.5 17.1221L18.7353 16.9965L18.5 16.5554ZM26.4545 12.3109H26.9545V11.4774L26.2191 11.8698L26.4545 12.3109ZM26.4545 16.7554L26.6899 17.1965L26.9545 17.0553V16.7554H26.4545ZM18.5 20.9999L18.2646 21.441L18.5 21.5666L18.7353 21.441L18.5 20.9999ZM18.2647 0.558824L5.76471 7.22552L6.23529 8.10787L18.7353 1.44118L18.2647 0.558824ZM31.2353 7.22552L18.7353 0.558824L18.2647 1.44118L30.7647 8.10787L31.2353 7.22552ZM31.5 16.5556V7.66669H30.5V16.5556H31.5ZM28.7273 17.0556H31V16.0556H28.7273V17.0556ZM28.2273 8.87781V16.5556H29.2273V8.87781H28.2273ZM18.7353 14.7745L28.9626 9.31897L28.4919 8.43665L18.2647 13.8922L18.7353 14.7745ZM5.76471 8.10787L18.2647 14.7746L18.7353 13.8922L6.23529 7.22552L5.76471 8.10787ZM10.0454 12.3109V16.7554H11.0454V12.3109H10.0454ZM18.7353 16.1143L10.7808 11.8698L10.31 12.7521L18.2646 16.9965L18.7353 16.1143ZM26.2191 11.8698L18.2646 16.1143L18.7353 16.9965L26.6899 12.7521L26.2191 11.8698ZM26.9545 16.7554V12.3109H25.9545V16.7554H26.9545ZM18.7353 21.441L26.6899 17.1965L26.2191 16.3143L18.2646 20.5587L18.7353 21.441ZM10.31 17.1965L18.2646 21.441L18.7353 20.5587L10.7808 16.3143L10.31 17.1965Z" fill="#979797"/>
</g>
<defs>
<filter id="filter0_d" x="0.9375" y="0.43335" width="34.5625" height="29.1333" filterUnits="userSpaceOnUse" color-interpolation-filters="sRGB">
<feFlood flood-opacity="0" result="BackgroundImageFix"/>
<feColorMatrix in="SourceAlpha" type="matrix" values="0 0 0 0 0 0 0 0 0 0 0 0 0 0 0 0 0 0 127 0"/>
<feOffset dy="4"/>
<feGaussianBlur stdDeviation="2"/>
<feColorMatrix type="matrix" values="0 0 0 0 0 0 0 0 0 0 0 0 0 0 0 0 0 0 0.25 0"/>
<feBlend mode="normal" in2="BackgroundImageFix" result="effect1_dropShadow"/>
<feBlend mode="normal" in="SourceGraphic" in2="effect1_dropShadow" result="shape"/>
</filter>
</defs>
</svg>