<svg width="28" height="28" viewBox="0 0 28 28" fill="none" xmlns="http://www.w3.org/2000/svg">
<g clip-path="url(#clip0)">
<rect y="-6.10352e-05" width="28.3014" height="28.3014" rx="14.1507" fill="white"/>
<path d="M13.9998 7.49005C15.0997 7.49005 15.9944 8.38477 15.9944 9.48472C15.9944 10.5837 15.0995 11.4785 13.9998 11.4785C12.9005 11.4785 12.0056 10.5837 12.0056 9.48472C12.0053 8.38454 12.9007 7.49005 13.9998 7.49005ZM13.9998 14.3005C16.6567 14.3005 18.8174 12.1405 18.8174 9.48472C18.8174 6.82755 16.6569 4.66663 13.9998 4.66663C11.3431 4.66663 9.18213 6.82778 9.18213 9.48472C9.18213 12.1405 11.3431 14.3005 13.9998 14.3005ZM15.9488 18.2301C16.9398 18.0044 17.8856 17.6128 18.7461 17.0718C19.0629 16.8725 19.2876 16.5555 19.3707 16.1906C19.4537 15.8256 19.3884 15.4426 19.1891 15.1258C19.0905 14.9688 18.962 14.8327 18.8108 14.7255C18.6596 14.6182 18.4887 14.5417 18.308 14.5005C18.1272 14.4593 17.9401 14.4541 17.7573 14.4853C17.5746 14.5165 17.3998 14.5834 17.2429 14.6821C15.2692 15.923 12.7289 15.9221 10.7569 14.6821C10.6 14.5833 10.4252 14.5164 10.2425 14.4852C10.0597 14.4541 9.87262 14.4592 9.69187 14.5004C9.51113 14.5417 9.34028 14.6181 9.1891 14.7254C9.03793 14.8327 8.9094 14.9688 8.81087 15.1258C8.6115 15.4425 8.54609 15.8255 8.62903 16.1904C8.71198 16.5553 8.93648 16.8724 9.25316 17.0718C10.1136 17.6126 11.0592 18.0042 12.0501 18.2301L9.35692 20.9237C9.09226 21.1885 8.94361 21.5475 8.94368 21.9219C8.94374 22.2962 9.09252 22.6552 9.35727 22.9199C9.62202 23.1845 9.98107 23.3332 10.3554 23.3331C10.7298 23.3331 11.0888 23.1843 11.3534 22.9195L13.9993 20.2732L16.6468 22.9198C16.7777 23.0509 16.9332 23.1549 17.1043 23.2258C17.2754 23.2968 17.4589 23.3333 17.6441 23.3333C17.8294 23.3333 18.0128 23.2968 18.184 23.2258C18.3551 23.1549 18.5105 23.0509 18.6415 22.9198C18.7727 22.7889 18.8769 22.6334 18.948 22.4621C19.0191 22.2909 19.0556 22.1074 19.0556 21.922C19.0556 21.7366 19.0191 21.553 18.948 21.3818C18.8769 21.2106 18.7727 21.0551 18.6415 20.9242L15.9488 18.2301Z" fill="#525252"/>
</g>
<defs>
<clipPath id="clip0">
<rect width="28" height="28" fill="white"/>
</clipPath>
</defs>
</svg>