<svg width="34" height="23" viewBox="0 0 34 23" fill="none" xmlns="http://www.w3.org/2000/svg">
<path fill-rule="evenodd" clip-rule="evenodd" d="M17 0C9.5 0 3.095 4.665 0.5 11.25C3.095 17.835 9.5 22.5 17 22.5C24.5 22.5 30.905 17.835 33.5 11.25C30.905 4.665 24.5 0 17 0ZM17 18.75C12.86 18.75 9.5 15.39 9.5 11.25C9.5 7.11 12.86 3.75 17 3.75C21.14 3.75 24.5 7.11 24.5 11.25C24.5 15.39 21.14 18.75 17 18.75ZM12.5 11.25C12.5 8.76 14.51 6.75 17 6.75C19.49 6.75 21.5 8.76 21.5 11.25C21.5 13.74 19.49 15.75 17 15.75C14.51 15.75 12.5 13.74 12.5 11.25Z" fill="black" fill-opacity="0.54"/>
</svg>