<svg width="28" height="28" viewBox="0 0 28 28" fill="none" xmlns="http://www.w3.org/2000/svg">
<g clip-path="url(#clip0)">
<rect y="-6.10352e-05" width="28" height="28" rx="14" fill="white"/>
<path d="M21.06 11.3719C21.06 11.528 21.06 11.6841 21.06 11.818C21.06 16.4349 17.5817 21.7657 11.2416 21.7657C9.28228 21.7657 7.4771 21.1857 5.9361 20.2044C6.20027 20.2267 6.48646 20.249 6.75063 20.249C8.35768 20.249 9.85465 19.6914 11.0434 18.7546C9.52444 18.7323 8.24761 17.7063 7.82933 16.3234C8.04948 16.368 8.24761 16.3903 8.48976 16.3903C8.79796 16.3903 9.10617 16.3457 9.39235 16.2565C7.80732 15.9443 6.61854 14.5391 6.61854 12.844C6.61854 12.8217 6.61854 12.8217 6.61854 12.7994C7.08084 13.067 7.60919 13.2231 8.18156 13.2454C7.25696 12.6209 6.64056 11.5503 6.64056 10.3236C6.64056 9.67677 6.81667 9.07455 7.10286 8.56156C8.79796 10.6805 11.3516 12.0633 14.2135 12.2194C14.1475 11.9741 14.1254 11.6841 14.1254 11.4165C14.1254 9.47603 15.6664 7.91473 17.5817 7.91473C18.5723 7.91473 19.4749 8.33851 20.0913 9.00764C20.8839 8.85151 21.6103 8.56156 22.2928 8.16008C22.0286 8.98534 21.4782 9.65446 20.7738 10.1005C21.4782 10.0113 22.1387 9.8329 22.7551 9.54294C22.3148 10.2567 21.7424 10.8812 21.06 11.3719Z" fill="#525252"/>
</g>
<defs>
<clipPath id="clip0">
<rect width="28" height="28" fill="white"/>
</clipPath>
</defs>
</svg>