<svg width="28" height="28" viewBox="0 0 28 28" fill="none" xmlns="http://www.w3.org/2000/svg">
<g clip-path="url(#clip0)">
<rect width="28.3014" height="28.3014" rx="14.1507" fill="white"/>
<path fill-rule="evenodd" clip-rule="evenodd" d="M22.9051 9.64535C23.0349 9.21271 22.9051 8.89471 22.2875 8.89471H20.2453C19.726 8.89471 19.4868 9.16938 19.357 9.47235C19.357 9.47235 18.3184 12.0036 16.8472 13.6478C16.3712 14.1238 16.1549 14.275 15.8953 14.275C15.7654 14.275 15.5776 14.1238 15.5776 13.6911V9.64535C15.5776 9.12606 15.4269 8.89471 14.9941 8.89471H11.785C11.4606 8.89471 11.2654 9.13569 11.2654 9.36412C11.2654 9.85642 12.0009 9.9699 12.0767 11.3545V14.3618C12.0767 15.0211 11.9577 15.1408 11.6981 15.1408C11.0058 15.1408 9.3219 12.598 8.323 9.68867C8.12724 9.12314 7.93091 8.89471 7.40899 8.89471H5.36685C4.78338 8.89471 4.66669 9.16938 4.66669 9.47235C4.66669 10.0132 5.35912 12.696 7.89036 16.2441C9.57804 18.667 11.9554 19.9806 14.1189 19.9806C15.4171 19.9806 15.5776 19.6889 15.5776 19.1864V17.355C15.5776 16.7716 15.7005 16.6552 16.1114 16.6552C16.4146 16.6552 16.9337 16.8066 18.1454 17.9748C19.53 19.3592 19.7581 19.9806 20.5371 19.9806H22.5792C23.1627 19.9806 23.4544 19.6889 23.2861 19.1132C23.102 18.5393 22.4409 17.707 21.5637 16.7201C21.0877 16.1575 20.3737 15.5517 20.1575 15.2488C19.8545 14.8594 19.941 14.6864 20.1575 14.3404C20.1575 14.3404 22.6454 10.8355 22.9051 9.64549V9.64535Z" fill="#525252"/>
</g>
<defs>
<clipPath id="clip0">
<rect width="28" height="28" fill="white"/>
</clipPath>
</defs>
</svg>