<svg width="20" height="20" viewBox="0 0 20 20" fill="none" xmlns="http://www.w3.org/2000/svg">
<circle cx="10" cy="10" r="9.5" fill="#F6F6F6" stroke="#979797"/>
<path d="M9.386 7.636H10.38V15H9.386V7.636ZM9.89 6.026C9.68467 6.026 9.512 5.956 9.372 5.816C9.232 5.676 9.162 5.508 9.162 5.312C9.162 5.12533 9.232 4.962 9.372 4.822C9.512 4.682 9.68467 4.612 9.89 4.612C10.0953 4.612 10.268 4.682 10.408 4.822C10.548 4.95267 10.618 5.11133 10.618 5.298C10.618 5.50333 10.548 5.676 10.408 5.816C10.268 5.956 10.0953 6.026 9.89 6.026Z" fill="black"/>
</svg>