<svg width="36" height="34" viewBox="0 0 36 34" fill="none" xmlns="http://www.w3.org/2000/svg">
<g filter="url(#filter0_d)">
<path d="M16.5 0L19.292 8.65717L28.3882 8.63729L21.0175 13.9678L23.8473 22.6127L16.5 17.25L9.15268 22.6127L11.9825 13.9678L4.61179 8.63729L13.708 8.65717L16.5 0Z" fill="#FFDA17"/>
<path d="M16.5 1.62899L18.8161 8.81064L18.9281 9.15797L19.2931 9.15717L26.8389 9.14067L20.7245 13.5627L20.4288 13.7765L20.5423 14.1234L22.8898 21.2948L16.7948 16.8461L16.5 16.631L16.2052 16.8461L10.1102 21.2948L12.4577 14.1234L12.5712 13.7765L12.2755 13.5627L6.16106 9.14067L13.7069 9.15717L14.0719 9.15797L14.1839 8.81064L16.5 1.62899Z" stroke="#979797"/>
</g>
<defs>
<filter id="filter0_d" x="0.611816" y="0" width="31.7764" height="30.6127" filterUnits="userSpaceOnUse" color-interpolation-filters="sRGB">
<feFlood flood-opacity="0" result="BackgroundImageFix"/>
<feColorMatrix in="SourceAlpha" type="matrix" values="0 0 0 0 0 0 0 0 0 0 0 0 0 0 0 0 0 0 127 0"/>
<feOffset dy="4"/>
<feGaussianBlur stdDeviation="2"/>
<feColorMatrix type="matrix" values="0 0 0 0 0 0 0 0 0 0 0 0 0 0 0 0 0 0 0.25 0"/>
<feBlend mode="normal" in2="BackgroundImageFix" result="effect1_dropShadow"/>
<feBlend mode="normal" in="SourceGraphic" in2="effect1_dropShadow" result="shape"/>
</filter>
</defs>
</svg>