<svg width="28" height="28" viewBox="0 0 28 28" fill="none" xmlns="http://www.w3.org/2000/svg">
<g clip-path="url(#clip0)">
<rect y="-6.10352e-05" width="28.3014" height="28.3014" rx="14.1507" fill="white"/>
<path d="M20.8562 7.10757C20.3931 6.68181 18.5183 5.31865 14.3392 5.29997C14.3392 5.29997 9.41309 5.0012 7.01168 7.20467C5.67466 8.54169 5.20408 10.4949 5.15553 12.9225C5.10698 15.3463 5.04349 19.8914 9.42429 21.1239H9.42803L9.42429 23.0024C9.42429 23.0024 9.39815 23.7643 9.8986 23.9174C10.5036 24.1042 10.8622 23.5253 11.441 22.9016C11.7585 22.558 12.1954 22.0576 12.5278 21.6729C15.5231 21.9231 17.8274 21.348 18.0888 21.2621C18.6938 21.0641 22.1185 20.6272 22.675 16.082C23.2502 11.4062 22.3949 8.44459 20.8562 7.10757ZM21.3641 15.7534C20.8936 19.5478 18.1187 19.7869 17.607 19.9512C17.3904 20.0222 15.3662 20.5263 12.8191 20.3583C12.8191 20.3583 10.9219 22.6476 10.3318 23.2415C10.2385 23.3348 10.1302 23.3722 10.0592 23.3535C9.95836 23.3274 9.92848 23.2079 9.93221 23.0323C9.93221 22.7784 9.94715 19.9064 9.94715 19.9064C9.94342 19.9064 9.94342 19.9064 9.94715 19.9064C6.2386 18.8793 6.45521 15.0102 6.49629 12.986C6.53737 10.9618 6.91831 9.29984 8.04993 8.18316C10.0779 6.34569 14.2645 6.61832 14.2645 6.61832C17.7975 6.63326 19.4893 7.69765 19.8815 8.05245C21.1849 9.17286 21.8496 11.8432 21.3641 15.7534Z" fill="#525252"/>
<path d="M16.061 13.057C15.9378 13.057 15.8332 12.9599 15.8257 12.833C15.7847 12.03 15.4075 11.6378 14.6381 11.5968C14.5074 11.5893 14.4066 11.4773 14.414 11.3465C14.4215 11.2158 14.5335 11.115 14.6643 11.1225C15.6801 11.1785 16.2478 11.7611 16.3 12.8068C16.3075 12.9375 16.2067 13.0496 16.076 13.0533C16.0685 13.057 16.0648 13.057 16.061 13.057Z" fill="#525252"/>
<path d="M17.271 13.4606H17.2672C17.1365 13.4568 17.0319 13.3485 17.0357 13.2178C17.0543 12.4111 16.8228 11.7576 16.3298 11.2198C15.8406 10.682 15.1646 10.3907 14.272 10.3272C14.1413 10.316 14.0442 10.2039 14.0554 10.0732C14.0666 9.94249 14.1786 9.84539 14.3093 9.85659C15.3177 9.93129 16.1132 10.2823 16.6809 10.9023C17.2523 11.526 17.5287 12.3066 17.51 13.229C17.5062 13.3597 17.3979 13.4606 17.271 13.4606Z" fill="#525252"/>
<path d="M18.511 13.9458C18.3803 13.9458 18.2757 13.8412 18.2757 13.7105C18.2645 12.2652 17.8499 11.1634 17.0059 10.3381C16.1731 9.5239 15.1161 9.10935 13.8725 9.09815C13.7418 9.09815 13.6372 8.98984 13.6372 8.85913C13.6372 8.72841 13.7455 8.62384 13.8725 8.62384C15.2431 8.63504 16.4084 9.09441 17.3308 9.99821C18.257 10.902 18.7313 12.1494 18.7463 13.703C18.75 13.8375 18.6454 13.9458 18.511 13.9458C18.5147 13.9458 18.5147 13.9458 18.511 13.9458Z" fill="#525252"/>
<path d="M14.6941 15.9811C14.6941 15.9811 15.0264 16.011 15.2057 15.7907L15.553 15.3537C15.7211 15.1371 16.1282 14.9989 16.5241 15.2193C16.7444 15.3425 17.144 15.589 17.3905 15.772C17.6557 15.9662 18.1935 16.4144 18.1972 16.4181C18.4549 16.6347 18.5147 16.9522 18.3391 17.292C18.3391 17.292 18.3391 17.2958 18.3391 17.2995C18.1599 17.6169 17.9171 17.9157 17.6146 18.1921C17.6109 18.1921 17.6109 18.1958 17.6071 18.1958C17.3569 18.405 17.1104 18.5245 16.8714 18.5506C16.8415 18.5581 16.8079 18.5581 16.7631 18.5581C16.6585 18.5581 16.5539 18.5431 16.4494 18.5095L16.4419 18.4983C16.0684 18.3938 15.4485 18.1323 14.4177 17.5609C13.7454 17.1912 13.189 16.814 12.7147 16.4368C12.4644 16.2388 12.2105 16.0185 11.9491 15.7571C11.9416 15.7496 11.9304 15.7384 11.9229 15.7309C11.9154 15.7234 11.9042 15.7122 11.8968 15.7048C11.8893 15.6973 11.8781 15.6861 11.8706 15.6786C11.8632 15.6712 11.852 15.66 11.8445 15.6525C11.5868 15.3911 11.3627 15.1371 11.1648 14.8869C10.7876 14.4163 10.4104 13.8561 10.0406 13.1838C9.46921 12.1493 9.20778 11.5294 9.10321 11.1596L9.09201 11.1522C9.0584 11.0476 9.04346 10.943 9.04346 10.8385C9.04346 10.7936 9.04346 10.76 9.05093 10.7302C9.0808 10.4874 9.20031 10.2446 9.40572 9.99441C9.40572 9.99068 9.40946 9.99068 9.40946 9.98695C9.68583 9.6807 9.9846 9.44168 10.3021 9.26241C10.3021 9.26241 10.3058 9.26241 10.3095 9.26241C10.6456 9.08688 10.9631 9.14664 11.1834 9.40433C11.1834 9.40433 11.6353 9.94586 11.8295 10.211C12.0125 10.4613 12.259 10.8571 12.3823 11.0775C12.6026 11.4734 12.4644 11.8804 12.2478 12.0485L11.8109 12.3958C11.5905 12.5751 11.6204 12.9075 11.6204 12.9075C11.6204 12.9075 12.2665 15.3649 14.6941 15.9811Z" fill="#525252"/>
</g>
<defs>
<clipPath id="clip0">
<rect width="28" height="28" fill="white"/>
</clipPath>
</defs>
</svg>