<svg width="24" height="24" viewBox="0 0 24 24" fill="none" xmlns="http://www.w3.org/2000/svg">
<g clip-path="url(#clip0)">
<path d="M22.1511 15.0766C21.8209 15.0766 21.5533 15.3442 21.5533 15.6744V20.9815C21.5522 21.9715 20.7501 22.7737 19.7602 22.7747H2.98862C1.99864 22.7737 1.19662 21.9715 1.19545 20.9815V5.4054C1.19662 4.41566 1.99864 3.6134 2.98862 3.61223H8.29576C8.62591 3.61223 8.89348 3.34466 8.89348 3.01451C8.89348 2.68459 8.62591 2.41678 8.29576 2.41678H2.98862C1.33881 2.41865 0.00186789 3.75559 0 5.4054V20.9817C0.00186789 22.6315 1.33881 23.9685 2.98862 23.9704H19.7602C21.41 23.9685 22.7469 22.6315 22.7488 20.9817V15.6744C22.7488 15.3442 22.4812 15.0766 22.1511 15.0766Z" fill="#FC8A15"/>
<path d="M22.5121 0.878821C21.4616 -0.171633 19.7586 -0.171633 18.7081 0.878821L8.04433 11.5426C7.97125 11.6157 7.91848 11.7063 7.89093 11.8057L6.48861 16.8684C6.43094 17.076 6.48954 17.2983 6.64178 17.4507C6.79424 17.603 7.01652 17.6616 7.22409 17.6041L12.2868 16.2016C12.3862 16.174 12.4768 16.1213 12.5499 16.0482L23.2135 5.38417C24.2623 4.33301 24.2623 2.63137 23.2135 1.58021L22.5121 0.878821ZM9.34671 11.9311L18.0742 3.20341L20.8889 6.01808L12.1612 14.7458L9.34671 11.9311ZM8.78448 13.0593L11.0332 15.3083L7.92268 16.1701L8.78448 13.0593ZM22.3682 4.53895L21.7343 5.17286L18.9194 2.35796L19.5536 1.72404C20.137 1.14056 21.0831 1.14056 21.6666 1.72404L22.3682 2.42543C22.9508 3.00962 22.9508 3.955 22.3682 4.53895Z" fill="#FC8A15"/>
</g>
<defs>
<clipPath id="clip0">
<rect width="24" height="24" fill="white"/>
</clipPath>
</defs>
</svg>