<svg width="28" height="28" viewBox="0 0 28 28" fill="none" xmlns="http://www.w3.org/2000/svg">
<g clip-path="url(#clip0)">
<rect y="-6.10352e-05" width="28.3014" height="28.3014" rx="14.1507" fill="white"/>
<path d="M20.2714 7.70666C18.7705 6.16161 16.6957 5.32288 14.5768 5.32288C10.0741 5.32288 6.45424 8.98684 6.49838 13.4454C6.49838 14.858 6.89568 16.2265 7.55784 17.4625L6.4101 21.6562L10.6921 20.5526C11.884 21.2148 13.2083 21.5238 14.5326 21.5238C18.9912 21.5238 22.611 17.8598 22.611 13.4013C22.611 11.2382 21.7723 9.20756 20.2714 7.70666ZM14.5768 20.1553C13.3849 20.1553 12.193 19.8463 11.1777 19.2283L10.9128 19.0958L8.35244 19.758L9.0146 17.2418L8.83802 16.9769C6.89568 13.8427 7.82271 9.69315 11.0011 7.7508C14.1795 5.80846 18.2849 6.73549 20.2272 9.91387C22.1696 13.0922 21.2425 17.1976 18.0641 19.14C17.0488 19.8022 15.8128 20.1553 14.5768 20.1553ZM18.4614 15.2553L17.9759 15.0346C17.9759 15.0346 17.2696 14.7256 16.8281 14.5049C16.784 14.5049 16.7398 14.4607 16.6957 14.4607C16.5632 14.4607 16.475 14.5049 16.3867 14.549C16.3867 14.549 16.3425 14.5931 15.7245 15.2995C15.6804 15.3877 15.5921 15.4319 15.5038 15.4319H15.4596C15.4155 15.4319 15.3272 15.3877 15.2831 15.3436L15.0623 15.2553C14.5768 15.0346 14.1353 14.7697 13.7822 14.4166C13.6939 14.3283 13.5614 14.24 13.4732 14.1517C13.1641 13.8427 12.8551 13.4895 12.6344 13.0922L12.5903 13.004C12.5461 12.9598 12.5461 12.9157 12.502 12.8274C12.502 12.7391 12.502 12.6508 12.5461 12.6067C12.5461 12.6067 12.7227 12.3859 12.8551 12.2535C12.9434 12.1652 12.9876 12.0328 13.0759 11.9445C13.1641 11.8121 13.2083 11.6355 13.1641 11.5031C13.12 11.2823 12.5903 10.0904 12.4578 9.82558C12.3696 9.69315 12.2813 9.649 12.1488 9.60486H12.0164C11.9281 9.60486 11.7957 9.60486 11.6632 9.60486C11.575 9.60486 11.4867 9.649 11.3984 9.649L11.3542 9.69315C11.266 9.73729 11.1777 9.82558 11.0894 9.86972C11.0011 9.95801 10.9569 10.0463 10.8687 10.1346C10.5596 10.5319 10.3831 11.0175 10.3831 11.5031C10.3831 11.8562 10.4714 12.2094 10.6038 12.5184L10.6479 12.6508C11.0452 13.4895 11.575 14.24 12.2813 14.9022L12.4578 15.0787C12.5903 15.2112 12.7227 15.2995 12.811 15.4319C13.738 16.2265 14.7975 16.8004 15.9894 17.1094C16.1218 17.1535 16.2984 17.1535 16.4308 17.1976C16.5632 17.1976 16.7398 17.1976 16.8723 17.1976C17.093 17.1976 17.3578 17.1094 17.5344 17.0211C17.6669 16.9328 17.7551 16.9328 17.8434 16.8445L17.9317 16.7562C18.02 16.6679 18.1083 16.6238 18.1966 16.5355C18.2849 16.4472 18.3732 16.3589 18.4173 16.2706C18.5056 16.094 18.5497 15.8733 18.5939 15.6526C18.5939 15.5643 18.5939 15.4319 18.5939 15.3436C18.5939 15.3436 18.5497 15.2995 18.4614 15.2553Z" fill="#525252"/>
</g>
<defs>
<clipPath id="clip0">
<rect width="28" height="28" fill="white"/>
</clipPath>
</defs>
</svg>