<svg width="48" height="38" viewBox="0 0 48 38" fill="none" xmlns="http://www.w3.org/2000/svg">
<path d="M36.0638 21.4834L39.7252 22.9969L35.9066 13.7927L26.9105 17.6996L30.6634 19.251C28.8143 23.9335 26.0554 26.6059 21.9272 27.6229C26.8737 28.5782 32.5598 27.6606 36.0638 21.4834Z" fill="black" fill-opacity="0.54"/>
<path fill-rule="evenodd" clip-rule="evenodd" d="M24.6804 5.05029H4.93607C3.57865 5.05029 2.48037 6.18661 2.48037 7.57545L2.46803 22.7264C2.46803 24.1152 3.57865 25.2515 4.93607 25.2515H24.6804C26.0378 25.2515 27.1484 24.1152 27.1484 22.7264V7.57545C27.1484 6.18661 26.0378 5.05029 24.6804 5.05029ZM4.93607 22.7264V10.1006L14.8082 16.4135L24.6804 10.1006V22.7264H4.93607ZM4.93607 7.57545L14.8082 13.8883L24.6804 7.57545H4.93607Z" fill="black" fill-opacity="0.54"/>
</svg>