<svg width="48" height="38" viewBox="0 0 48 38" fill="none" xmlns="http://www.w3.org/2000/svg">
<path d="M36.0639 21.4834L39.7252 22.9969L35.9066 13.7927L26.9106 17.6997L30.6634 19.251C28.8143 23.9336 26.0554 26.606 21.9272 27.6229C26.8737 28.5783 32.5598 27.6606 36.0639 21.4834Z" fill="black" fill-opacity="0.54"/>
<path fill-rule="evenodd" clip-rule="evenodd" d="M24.6804 5.05029H4.93606C3.57864 5.05029 2.48036 6.18661 2.48036 7.57545L2.46802 22.7264C2.46802 24.1152 3.57864 25.2515 4.93606 25.2515H24.6804C26.0378 25.2515 27.1484 24.1152 27.1484 22.7264V7.57545C27.1484 6.18661 26.0378 5.05029 24.6804 5.05029ZM4.93606 22.7264V10.1006L14.8082 16.4135L24.6804 10.1006V22.7264H4.93606ZM4.93606 7.57545L14.8082 13.8883L24.6804 7.57545H4.93606Z" fill="black" fill-opacity="0.54"/>
</svg>