<svg width="24" height="25" viewBox="0 0 24 25" fill="none" xmlns="http://www.w3.org/2000/svg">
<g clip-path="url(#clip0)">
<path d="M22.1511 15.7048C21.8209 15.7048 21.5533 15.9835 21.5533 16.3274V21.8557C21.5522 22.8869 20.7501 23.7226 19.7602 23.7236H2.98862C1.99864 23.7226 1.19662 22.8869 1.19545 21.8557V5.6306C1.19662 4.59962 1.99864 3.76393 2.98862 3.76272H8.29576C8.62591 3.76272 8.89348 3.48399 8.89348 3.14009C8.89348 2.79642 8.62591 2.51746 8.29576 2.51746H2.98862C1.33881 2.5194 0.00186789 3.91205 0 5.6306V21.8559C0.00186789 23.5745 1.33881 24.9671 2.98862 24.9691H19.7602C21.41 24.9671 22.7469 23.5745 22.7488 21.8559V16.3274C22.7488 15.9835 22.4812 15.7048 22.1511 15.7048Z" fill="#FC8A15"/>
<path d="M22.5121 0.915455C21.4616 -0.178768 19.7586 -0.178768 18.7081 0.915455L8.04433 12.0236C7.97125 12.0997 7.91848 12.194 7.89093 12.2977L6.48861 17.5713C6.43094 17.7875 6.48954 18.019 6.64178 18.1779C6.79424 18.3364 7.01652 18.3975 7.22409 18.3377L12.2868 16.8767C12.3862 16.848 12.4768 16.793 12.5499 16.7169L23.2135 5.60853C24.2623 4.51357 24.2623 2.74102 23.2135 1.64607L22.5121 0.915455ZM9.34671 12.4283L18.0742 3.3369L20.8889 6.26885L12.1612 15.3602L9.34671 12.4283ZM8.78448 13.6035L11.0332 15.9461L7.92268 16.8438L8.78448 13.6035ZM22.3682 4.72809L21.7343 5.38842L18.9194 2.45622L19.5536 1.79589C20.137 1.1881 21.0831 1.1881 21.6666 1.79589L22.3682 2.52651C22.9508 3.13503 22.9508 4.11981 22.3682 4.72809Z" fill="#FC8A15"/>
</g>
<defs>
<clipPath id="clip0">
<rect width="24" height="25" fill="white"/>
</clipPath>
</defs>
</svg>