<svg width="18" height="15" viewBox="0 0 18 15" fill="none" xmlns="http://www.w3.org/2000/svg">
<path d="M16.06 4.37189C16.06 4.52802 16.06 4.68415 16.06 4.81797C16.06 9.43495 12.5818 14.7657 6.24162 14.7657C4.28234 14.7657 2.47716 14.1857 0.936157 13.2044C1.20033 13.2267 1.48652 13.249 1.75069 13.249C3.35774 13.249 4.85472 12.6914 6.04349 11.7546C4.5245 11.7323 3.24767 10.7063 2.82939 9.32343C3.04954 9.36804 3.24767 9.39034 3.48982 9.39034C3.79803 9.39034 4.10623 9.34573 4.39241 9.25651C2.80738 8.94425 1.6186 7.53909 1.6186 5.84397C1.6186 5.82166 1.6186 5.82166 1.6186 5.79936C2.0809 6.06701 2.60925 6.22314 3.18162 6.24544C2.25702 5.62093 1.64062 4.55032 1.64062 3.32359C1.64062 2.67677 1.81673 2.07455 2.10292 1.56156C3.79803 3.68046 6.35169 5.06332 9.21356 5.21945C9.14752 4.9741 9.1255 4.68415 9.1255 4.4165C9.1255 2.47603 10.6665 0.914734 12.5818 0.914734C13.5724 0.914734 14.475 1.33851 15.0914 2.00764C15.8839 1.85151 16.6104 1.56156 17.2928 1.16008C17.0287 1.98534 16.4783 2.65446 15.7738 3.10055C16.4783 3.01133 17.1387 2.8329 17.7551 2.54294C17.3148 3.25668 16.7425 3.8812 16.06 4.37189Z" fill="#525252"/>
</svg>