<svg width="18" height="19" viewBox="0 0 18 19" fill="none" xmlns="http://www.w3.org/2000/svg">
<path d="M15.8562 2.10757C15.3931 1.68181 13.5183 0.318648 9.33916 0.299975C9.33916 0.299975 4.41309 0.00119874 2.01168 2.20467C0.674657 3.54169 0.204085 5.49494 0.155534 7.92249C0.106982 10.3463 0.0434923 14.8914 4.42429 16.1239H4.42803L4.42429 18.0024C4.42429 18.0024 4.39815 18.7643 4.8986 18.9174C5.50362 19.1042 5.86215 18.5253 6.44103 17.9016C6.75848 17.558 7.19544 17.0576 7.52783 16.6729C10.5231 16.9231 12.8274 16.348 13.0888 16.2621C13.6938 16.0641 17.1185 15.6272 17.675 11.082C18.2502 6.40621 17.3949 3.44459 15.8562 2.10757ZM16.3641 10.7534C15.8936 14.5478 13.1187 14.7869 12.607 14.9512C12.3904 15.0222 10.3662 15.5263 7.81914 15.3583C7.81914 15.3583 5.92191 17.6476 5.33183 18.2415C5.23846 18.3348 5.13015 18.3722 5.05919 18.3535C4.95836 18.3274 4.92848 18.2079 4.93221 18.0323C4.93221 17.7784 4.94715 14.9064 4.94715 14.9064C4.94342 14.9064 4.94342 14.9064 4.94715 14.9064C1.2386 13.8793 1.45521 10.0102 1.49629 7.98598C1.53737 5.96178 1.91831 4.29984 3.04993 3.18316C5.07787 1.34569 9.26446 1.61832 9.26446 1.61832C12.7975 1.63326 14.4893 2.69765 14.8815 3.05245C16.1849 4.17286 16.8496 6.84317 16.3641 10.7534Z" fill="#525252"/>
<path d="M11.0611 8.05703C10.9378 8.05703 10.8333 7.95993 10.8258 7.83295C10.7847 7.02999 10.4075 6.63785 9.63817 6.59677C9.50745 6.5893 9.40662 6.47726 9.41409 6.34654C9.42156 6.21583 9.5336 6.11499 9.66431 6.12246C10.6801 6.17848 11.2478 6.76109 11.3001 7.80681C11.3076 7.93752 11.2067 8.04957 11.076 8.0533C11.0686 8.05703 11.0648 8.05703 11.0611 8.05703Z" fill="#525252"/>
<path d="M9.69406 10.9811C9.69406 10.9811 10.0264 11.011 10.2057 10.7907L10.553 10.3537C10.7211 10.1371 11.1282 9.99891 11.5241 10.2193C11.7444 10.3425 12.144 10.589 12.3905 10.772C12.6557 10.9662 13.1935 11.4144 13.1972 11.4181C13.4549 11.6347 13.5147 11.9522 13.3391 12.292C13.3391 12.292 13.3391 12.2958 13.3391 12.2995C13.1599 12.6169 12.9171 12.9157 12.6146 13.1921C12.6109 13.1921 12.6109 13.1958 12.6071 13.1958C12.3569 13.405 12.1104 13.5245 11.8714 13.5506C11.8415 13.5581 11.8079 13.5581 11.7631 13.5581C11.6585 13.5581 11.5539 13.5431 11.4494 13.5095L11.4419 13.4983C11.0684 13.3938 10.4485 13.1323 9.41769 12.5609C8.74544 12.1912 8.18897 11.814 7.71467 11.4368C7.46444 11.2388 7.21048 11.0185 6.94905 10.7571C6.94158 10.7496 6.93038 10.7384 6.92291 10.7309C6.91544 10.7234 6.90424 10.7122 6.89677 10.7048C6.8893 10.6973 6.87809 10.6861 6.87062 10.6786C6.86315 10.6712 6.85195 10.66 6.84448 10.6525C6.58679 10.3911 6.36271 10.1371 6.16477 9.88687C5.78756 9.4163 5.41036 8.85609 5.04062 8.18385C4.46921 7.14934 4.20778 6.52938 4.10321 6.15964L4.09201 6.15217C4.0584 6.0476 4.04346 5.94303 4.04346 5.83846C4.04346 5.79364 4.04346 5.76003 4.05093 5.73015C4.0808 5.4874 4.20031 5.24464 4.40572 4.99441C4.40572 4.99068 4.40946 4.99068 4.40946 4.98695C4.68583 4.6807 4.9846 4.44168 5.30205 4.26241C5.30205 4.26241 5.30579 4.26241 5.30952 4.26241C5.64564 4.08688 5.96309 4.14664 6.18344 4.40433C6.18344 4.40433 6.63534 4.94586 6.82954 5.21103C7.01254 5.46125 7.25903 5.85713 7.38228 6.07748C7.60263 6.47336 7.46444 6.88044 7.24783 7.0485L6.81087 7.39583C6.59052 7.57509 6.6204 7.90748 6.6204 7.90748C6.6204 7.90748 7.2665 10.3649 9.69406 10.9811Z" fill="#525252"/>
</svg>