<svg width="50" height="50" viewBox="0 0 50 50" fill="none" xmlns="http://www.w3.org/2000/svg">
<path fill-rule="evenodd" clip-rule="evenodd" d="M22.5 0.125V5.175C18.85 5.625 15.525 7.075 12.75 9.225L9.20001 5.65C12.9 2.625 17.475 0.625 22.5 0.125ZM27.625 19.475L20 13.75V36.25L27.625 30.525L35 25L27.625 19.475ZM9.225 12.75L5.65 9.20001C2.625 12.9 0.625 17.475 0.125 22.5H5.175C5.625 18.85 7.075 15.525 9.225 12.75ZM0.125 27.5H5.175C5.625 31.15 7.075 34.475 9.225 37.225L5.65 40.8C2.625 37.1 0.625 32.525 0.125 27.5ZM9.20001 44.35C12.9 47.375 17.5 49.375 22.5 49.875V44.825C18.85 44.375 15.525 42.925 12.75 40.775L9.20001 44.35ZM27.625 49.875C40.2 48.55 50 37.9 50 25C50 12.1 40.2 1.45 27.625 0.125V5.175C37.425 6.475 45 14.875 45 25C45 35.125 37.425 43.525 27.625 44.825V49.875Z" fill="#C4C4C4"/>
</svg>