<svg width="20" height="12" viewBox="0 0 20 12" fill="none" xmlns="http://www.w3.org/2000/svg">
<path fill-rule="evenodd" clip-rule="evenodd" d="M18.905 1.64535C19.0348 1.21271 18.905 0.894714 18.2874 0.894714H16.2453C15.726 0.894714 15.4868 1.16938 15.3569 1.47235C15.3569 1.47235 14.3184 4.00359 12.8471 5.6478C12.3712 6.12377 12.1548 6.27503 11.8952 6.27503C11.7654 6.27503 11.5775 6.12377 11.5775 5.69113V1.64535C11.5775 1.12606 11.4268 0.894714 10.994 0.894714H7.78495C7.46054 0.894714 7.26537 1.13569 7.26537 1.36412C7.26537 1.85642 8.00084 1.9699 8.07669 3.35448V6.36182C8.07669 7.02115 7.95766 7.14076 7.69802 7.14076C7.00573 7.14076 5.32184 4.598 4.32294 1.68867C4.12718 1.12314 3.93085 0.894714 3.40893 0.894714H1.36679C0.78332 0.894714 0.666626 1.16938 0.666626 1.47235C0.666626 2.01323 1.35906 4.69602 3.89029 8.2441C5.57798 10.667 7.95533 11.9806 10.1188 11.9806C11.4171 11.9806 11.5775 11.6889 11.5775 11.1864V9.35502C11.5775 8.77155 11.7005 8.65515 12.1114 8.65515C12.4145 8.65515 12.9336 8.80656 14.1454 9.97481C15.5299 11.3592 15.7581 11.9806 16.537 11.9806H18.5791C19.1626 11.9806 19.4543 11.6889 19.286 11.1132C19.1019 10.5393 18.4409 9.707 17.5636 8.72006C17.0876 8.15745 16.3736 7.55166 16.1574 7.24884C15.8545 6.85938 15.941 6.68638 16.1574 6.34038C16.1574 6.34038 18.6454 2.83548 18.905 1.64549V1.64535Z" fill="#525252"/>
</svg>