<svg width="17" height="17" viewBox="0 0 17 17" fill="none" xmlns="http://www.w3.org/2000/svg">
<path d="M14.2714 2.70666C12.7705 1.16161 10.6957 0.322876 8.57682 0.322876C4.07412 0.322876 0.4543 3.98684 0.498445 8.4454C0.498445 9.85801 0.895742 11.2265 1.5579 12.4625L0.410156 16.6562L4.69214 15.5526C5.88403 16.2148 7.20835 16.5238 8.53268 16.5238C12.9912 16.5238 16.6111 12.8598 16.6111 8.40125C16.6111 6.23819 15.7723 4.20756 14.2714 2.70666ZM8.57682 15.1553C7.38493 15.1553 6.19304 14.8463 5.17772 14.2283L4.91286 14.0958L2.3525 14.758L3.01466 12.2418L2.83808 11.9769C0.895742 8.8427 1.82277 4.69315 5.00115 2.7508C8.17952 0.808461 12.2849 1.73549 14.2273 4.91387C16.1696 8.09224 15.2426 12.1976 12.0642 14.14C11.0489 14.8022 9.81286 15.1553 8.57682 15.1553ZM12.4615 10.2553L11.9759 10.0346C11.9759 10.0346 11.2696 9.72558 10.8282 9.50486C10.784 9.50486 10.7399 9.46071 10.6957 9.46071C10.5633 9.46071 10.475 9.50486 10.3867 9.549C10.3867 9.549 10.3426 9.59315 9.72457 10.2995C9.68043 10.3877 9.59214 10.4319 9.50385 10.4319H9.4597C9.41556 10.4319 9.32727 10.3877 9.28313 10.3436L9.06241 10.2553C8.57682 10.0346 8.13538 9.76972 7.78223 9.41657C7.69394 9.32828 7.56151 9.23999 7.47322 9.1517C7.16421 8.8427 6.8552 8.48954 6.63448 8.09225L6.59034 8.00396C6.54619 7.95981 6.54619 7.91567 6.50205 7.82738C6.50205 7.73909 6.50205 7.6508 6.54619 7.60666C6.54619 7.60666 6.72277 7.38594 6.8552 7.25351C6.94349 7.16522 6.98763 7.03279 7.07592 6.9445C7.16421 6.81206 7.20835 6.63549 7.16421 6.50306C7.12007 6.28234 6.59034 5.09044 6.4579 4.82558C6.36962 4.69315 6.28133 4.649 6.14889 4.60486H6.01646C5.92817 4.60486 5.79574 4.60486 5.66331 4.60486C5.57502 4.60486 5.48673 4.649 5.39844 4.649L5.3543 4.69315C5.26601 4.73729 5.17772 4.82558 5.08944 4.86972C5.00115 4.95801 4.957 5.0463 4.86871 5.13459C4.55971 5.53188 4.38313 6.01747 4.38313 6.50306C4.38313 6.85621 4.47142 7.20936 4.60385 7.51837L4.64799 7.6508C5.04529 8.48954 5.57502 9.23999 6.28133 9.90215L6.4579 10.0787C6.59034 10.2112 6.72277 10.2995 6.81106 10.4319C7.73808 11.2265 8.79754 11.8004 9.98943 12.1094C10.1219 12.1535 10.2984 12.1535 10.4309 12.1976C10.5633 12.1976 10.7399 12.1976 10.8723 12.1976C11.093 12.1976 11.3579 12.1094 11.5345 12.0211C11.6669 11.9328 11.7552 11.9328 11.8435 11.8445L11.9318 11.7562C12.0201 11.6679 12.1084 11.6238 12.1966 11.5355C12.2849 11.4472 12.3732 11.3589 12.4174 11.2706C12.5057 11.094 12.5498 10.8733 12.5939 10.6526C12.5939 10.5643 12.5939 10.4319 12.5939 10.3436C12.5939 10.3436 12.5498 10.2995 12.4615 10.2553Z" fill="#525252"/>
</svg>