<svg xmlns="http://www.w3.org/2000/svg" width="12" height="12" viewBox="0 0 12 12">
    <path fill="#FC8A15" fill-rule="evenodd" d="M7.414 6l4.263 4.263c.155.155.245.302.292.455a.787.787 0 0 1 0 .463c-.047.154-.137.3-.292.456l-.04.04a1.087 1.087 0 0 1-.456.292.787.787 0 0 1-.463 0 1.087 1.087 0 0 1-.455-.292L6 7.414l-4.263 4.263a1.087 1.087 0 0 1-.455.292.787.787 0 0 1-.463 0 1.087 1.087 0 0 1-.456-.292l-.04-.04a1.087 1.087 0 0 1-.292-.456.787.787 0 0 1 0-.463c.047-.153.137-.3.292-.455L4.586 6 .323 1.737a1.087 1.087 0 0 1-.292-.455.787.787 0 0 1 0-.463C.078.665.168.519.323.363l.04-.04C.518.168.665.078.82.03a.787.787 0 0 1 .463 0c.153.047.3.137.455.292L6 4.586 10.263.323c.155-.155.302-.245.455-.292a.787.787 0 0 1 .463 0c.154.047.3.137.456.292l.04.04c.155.155.245.302.292.456a.787.787 0 0 1 0 .463c-.047.153-.137.3-.292.455L7.414 6z"/>
</svg>
