<svg xmlns="http://www.w3.org/2000/svg" width="16" height="12" viewBox="0 0 16 12">
    <g fill="#FC8A15" fill-rule="evenodd">
        <path d="M.971 0H15.03c.218 0 .386.04.528.116a.787.787 0 0 1 .327.327c.076.142.116.31.116.528v.058c0 .218-.04.386-.116.528a.787.787 0 0 1-.327.327c-.142.076-.31.116-.528.116H.97c-.218 0-.386-.04-.528-.116a.787.787 0 0 1-.327-.327A1.087 1.087 0 0 1 0 1.029V.97C0 .753.04.585.116.443A.787.787 0 0 1 .443.116C.585.04.753 0 .971 0zM.971 5H15.03c.218 0 .386.04.528.116a.787.787 0 0 1 .327.327c.076.142.116.31.116.528v.058c0 .218-.04.386-.116.528a.787.787 0 0 1-.327.327c-.142.076-.31.116-.528.116H.97c-.218 0-.386-.04-.528-.116a.787.787 0 0 1-.327-.327A1.087 1.087 0 0 1 0 6.029V5.97c0-.218.04-.386.116-.528a.787.787 0 0 1 .327-.327C.585 5.04.753 5 .971 5zM.971 10H15.03c.218 0 .386.04.528.116a.787.787 0 0 1 .327.327c.076.142.116.31.116.528v.058c0 .218-.04.386-.116.528a.787.787 0 0 1-.327.327c-.142.076-.31.116-.528.116H.97c-.218 0-.386-.04-.528-.116a.787.787 0 0 1-.327-.327A1.087 1.087 0 0 1 0 11.029v-.058c0-.218.04-.386.116-.528a.787.787 0 0 1 .327-.327C.585 10.04.753 10 .971 10z"/>
    </g>
</svg>
